<?xml version="1.0" encoding="UTF-8"?>
<!DOCTYPE svg PUBLIC "-//W3C//DTD SVG 1.1//EN" "http://www.w3.org/Graphics/SVG/1.1/DTD/svg11.dtd">
<svg xmlns="http://www.w3.org/2000/svg" version="1.1" width="1283px" height="675px" style="shape-rendering:geometricPrecision; text-rendering:geometricPrecision; image-rendering:optimizeQuality; fill-rule:evenodd; clip-rule:evenodd" xmlns:xlink="http://www.w3.org/1999/xlink">
<g><path style="opacity:1" fill="#fefefe" d="M -0.5,-0.5 C 427.167,-0.5 854.833,-0.5 1282.5,-0.5C 1282.5,224.5 1282.5,449.5 1282.5,674.5C 854.833,674.5 427.167,674.5 -0.5,674.5C -0.5,449.5 -0.5,224.5 -0.5,-0.5 Z"/></g>
<g><path style="opacity:1" fill="#fbfafa" d="M 751.5,38.5 C 764.5,49.1789 768.167,62.5122 762.5,78.5C 760.674,80.1475 759.34,82.1475 758.5,84.5C 757.167,85.1667 756.167,86.1667 755.5,87.5C 753.596,87.7376 752.262,88.7376 751.5,90.5C 749.847,90.6596 748.514,91.3263 747.5,92.5C 730.281,97.5469 716.947,92.5469 707.5,77.5C 704.892,68.8238 704.892,60.1571 707.5,51.5C 709.25,50.3406 710.25,48.674 710.5,46.5C 722.195,34.0946 735.861,31.428 751.5,38.5 Z"/></g>
<g><path style="opacity:1" fill="#353535" d="M 638.5,37.5 C 632.019,35.3813 625.353,34.2146 618.5,34C 622.833,33.3333 627.167,33.3333 631.5,34C 634.174,34.6701 636.507,35.8368 638.5,37.5 Z"/></g>
<g><path style="opacity:1" fill="#383838" d="M 751.5,38.5 C 735.861,31.428 722.195,34.0946 710.5,46.5C 714.531,40.3276 720.198,36.1609 727.5,34C 732.5,33.3333 737.5,33.3333 742.5,34C 746.11,34.4717 749.11,35.9717 751.5,38.5 Z"/></g>
<g><path style="opacity:1" fill="#616161" d="M 609.5,37.5 C 611.688,35.2445 614.354,34.4112 617.5,35C 615.073,36.5914 612.407,37.4248 609.5,37.5 Z"/></g>
<g><path style="opacity:1" fill="#fbfbfb" d="M 970.5,45.5 C 973.54,49.0658 976.04,53.0658 978,57.5C 979.317,63.7575 979.817,70.0908 979.5,76.5C 971.557,94.8031 957.891,101.303 938.5,96C 929.832,91.8367 923.832,85.3367 920.5,76.5C 919.473,67.6628 920.973,59.3294 925,51.5C 928.038,48.6306 930.871,45.6306 933.5,42.5C 946.444,36.4954 958.777,37.4954 970.5,45.5 Z"/></g>
<g><path style="opacity:1" fill="#fbfbfb" d="M 1091.5,64.5 C 1091.5,66.8333 1091.5,69.1667 1091.5,71.5C 1085.68,93.2532 1071.68,101.42 1049.5,96C 1034.34,87.8391 1028.84,75.3391 1033,58.5C 1041.18,40.6534 1054.68,34.8201 1073.5,41C 1083.15,46.1345 1089.15,53.9679 1091.5,64.5 Z"/></g>
<g><path style="opacity:1" fill="#f6f6f6" d="M 1199.5,96.5 C 1180.19,101.43 1166.69,94.763 1159,76.5C 1156.14,63.9259 1159.31,53.2593 1168.5,44.5C 1180.71,36.6794 1193.04,36.5128 1205.5,44C 1219.25,56.9477 1221.09,71.4477 1211,87.5C 1207.55,91.1234 1203.72,94.1234 1199.5,96.5 Z"/></g>
<g><path style="opacity:1" fill="#3b3b3b" d="M 970.5,45.5 C 958.777,37.4954 946.444,36.4954 933.5,42.5C 935.649,40.2542 938.316,38.7542 941.5,38C 950.681,36.3779 959.347,37.7113 967.5,42C 968.71,43.0391 969.71,44.2058 970.5,45.5 Z"/></g>
<g><path style="opacity:1" fill="#f9f8f7" d="M 1197.5,89.5 C 1182.45,93.7207 1171.95,88.7207 1166,74.5C 1165.1,68.3529 1165.6,62.3529 1167.5,56.5C 1175.72,46.0282 1186.05,43.1949 1198.5,48C 1211.78,57.7333 1213.95,69.5666 1205,83.5C 1202.52,85.6394 1200.02,87.6394 1197.5,89.5 Z"/></g>
<g><path style="opacity:1" fill="#333333" d="M 751.5,38.5 C 761.426,44.142 766.426,52.8087 766.5,64.5C 777.167,64.5 787.833,64.5 798.5,64.5C 796.393,65.4682 794.059,65.8016 791.5,65.5C 783.167,65.5 774.833,65.5 766.5,65.5C 766.54,70.3599 765.207,74.6932 762.5,78.5C 768.167,62.5122 764.5,49.1789 751.5,38.5 Z"/></g>
<g><path style="opacity:1" fill="#353535" d="M 710.5,46.5 C 710.25,48.674 709.25,50.3406 707.5,51.5C 707.75,49.326 708.75,47.6594 710.5,46.5 Z"/></g>
<g><path style="opacity:1" fill="#494949" d="M 933.5,42.5 C 930.871,45.6306 928.038,48.6306 925,51.5C 920.973,59.3294 919.473,67.6628 920.5,76.5C 919.651,74.1124 918.651,71.7791 917.5,69.5C 917.918,68.7784 918.584,68.2784 919.5,68C 919.272,67.6012 918.938,67.4346 918.5,67.5C 919.18,56.4576 924.18,48.1243 933.5,42.5 Z"/></g>
<g><path style="opacity:1" fill="#39365c" d="M 1117.5,53.5 C 1119.15,50.8632 1119.65,51.1966 1119,54.5C 1118.62,53.944 1118.12,53.6107 1117.5,53.5 Z"/></g>
<g><path style="opacity:1" fill="#363636" d="M 1197.5,89.5 C 1200.02,87.6394 1202.52,85.6394 1205,83.5C 1213.95,69.5666 1211.78,57.7333 1198.5,48C 1186.05,43.1949 1175.72,46.0282 1167.5,56.5C 1173.56,46.1424 1182.56,42.3091 1194.5,45C 1208.06,50.248 1213.56,60.0813 1211,74.5C 1209.22,82.1362 1204.72,87.1362 1197.5,89.5 Z"/></g>
<g><path style="opacity:1" fill="#373737" d="M 1092.5,64.5 C 1092.17,64.5 1091.83,64.5 1091.5,64.5C 1089.15,53.9679 1083.15,46.1345 1073.5,41C 1054.68,34.8201 1041.18,40.6534 1033,58.5C 1028.84,75.3391 1034.34,87.8391 1049.5,96C 1071.68,101.42 1085.68,93.2532 1091.5,71.5C 1091.83,71.5 1092.17,71.5 1092.5,71.5C 1091.46,78.2484 1088.79,84.2484 1084.5,89.5C 1083.5,89.8333 1082.83,90.5 1082.5,91.5C 1066.51,103.015 1051.35,102.015 1037,88.5C 1032.63,82.5493 1030.13,75.8826 1029.5,68.5C 1026.34,69.9131 1023.34,71.5797 1020.5,73.5C 1019.91,72.7666 1019.91,71.7666 1020.5,70.5C 1021.04,70.44 1021.38,70.1067 1021.5,69.5C 1008.01,68.1746 994.673,68.1746 981.5,69.5C 981.59,72.1522 980.924,74.4855 979.5,76.5C 979.817,70.0908 979.317,63.7575 978,57.5C 976.04,53.0658 973.54,49.0658 970.5,45.5C 973.091,46.2543 974.924,47.921 976,50.5C 979.532,55.6334 981.366,61.3001 981.5,67.5C 994.837,67.6666 1008.17,67.4999 1021.5,67C 1020.24,65.6626 1019.74,64.1626 1020,62.5C 1023.06,65.1145 1026.56,66.7812 1030.5,67.5C 1031.09,52.7341 1038.42,42.9007 1052.5,38C 1074.04,34.7394 1087.37,43.5727 1092.5,64.5 Z"/></g>
<g><path style="opacity:1" fill="#354f8c" d="M 1001.5,48.5 C 1002.41,58.3896 1002.41,59.3896 1001.5,51.5C 1000.45,51.6495 999.448,51.4828 998.5,51C 999.942,50.6232 1000.94,49.7899 1001.5,48.5 Z"/></g>
<g><path style="opacity:1" fill="#3c3c3c" d="M 1199.5,96.5 C 1203.72,94.1234 1207.55,91.1234 1211,87.5C 1221.09,71.4477 1219.25,56.9477 1205.5,44C 1193.04,36.5128 1180.71,36.6794 1168.5,44.5C 1171.48,41.3389 1175.14,39.1723 1179.5,38C 1198.3,34.6454 1211.13,41.8121 1218,59.5C 1220.92,72.7496 1217.42,83.9163 1207.5,93C 1205.18,94.9927 1202.52,96.1594 1199.5,96.5 Z"/></g>
<g><path style="opacity:1" fill="#1463a4" d="M 1117.5,53.5 C 1116.85,55.0858 1116.35,56.7525 1116,58.5C 1115.33,55.1667 1115.33,51.8333 1116,48.5C 1116.2,50.3817 1116.7,52.0484 1117.5,53.5 Z"/></g>
<g><path style="opacity:1" fill="#0a4e97" d="M 621.5,73.5 C 621.747,70.0613 621.414,66.728 620.5,63.5C 621.117,63.3893 621.617,63.056 622,62.5C 622.81,66.3575 622.643,70.0242 621.5,73.5 Z"/></g>
<g><path style="opacity:1" fill="#bfa89e" d="M 620.5,63.5 C 621.414,66.728 621.747,70.0613 621.5,73.5C 620.596,72.791 620.263,71.791 620.5,70.5C 615.841,70.1889 614.507,67.8555 616.5,63.5C 617.995,62.2947 619.328,62.2947 620.5,63.5 Z"/></g>
<g><path style="opacity:1" fill="#494949" d="M 638.5,37.5 C 648.913,42.9389 654.58,51.6055 655.5,63.5C 668.5,63.5 681.5,63.5 694.5,63.5C 694.094,61.8908 694.094,60.5575 694.5,59.5C 697.167,60.8333 699.833,62.1667 702.5,63.5C 703.573,59.1501 705.24,55.1501 707.5,51.5C 704.892,60.1571 704.892,68.8238 707.5,77.5C 705.54,73.7144 703.874,69.7144 702.5,65.5C 699.612,67.2901 696.612,68.4568 693.5,69C 694.167,68 694.833,67 695.5,66C 682.171,65.5001 668.837,65.3334 655.5,65.5C 654.812,77.5694 649.146,86.2361 638.5,91.5C 653.542,80.6729 657.375,66.6729 650,49.5C 646.636,44.9715 642.803,40.9715 638.5,37.5 Z"/></g>
<g><path style="opacity:1" fill="#1c1e3b" d="M 736.5,59.5 C 742.167,59.6636 742.5,59.9969 737.5,60.5C 737.5,61.5 737.5,62.5 737.5,63.5C 738.552,63.3505 739.552,63.5172 740.5,64C 739.234,64.3095 738.067,64.8095 737,65.5C 736.505,63.5273 736.338,61.5273 736.5,59.5 Z"/></g>
<g><path style="opacity:1" fill="#6b7a9f" d="M 1189.5,62.5 C 1190.55,62.3505 1191.55,62.5172 1192.5,63C 1191.03,64.0975 1190.2,65.5975 1190,67.5C 1188.37,66.0383 1188.21,64.3717 1189.5,62.5 Z"/></g>
<g><path style="opacity:1" fill="#fefefe" d="M 707.5,77.5 C 712.776,89.2507 721.943,95.2507 735,95.5C 737.5,95.3333 740,95.1667 742.5,95C 744.653,94.9005 746.319,94.0672 747.5,92.5C 749.38,92.7709 750.713,92.1042 751.5,90.5C 753.404,90.2624 754.738,89.2624 755.5,87.5C 756.5,87.5 757.5,87.5 758.5,87.5C 758.511,89.0174 759.177,90.1841 760.5,91C 798.167,124.667 835.833,158.333 873.5,192C 874.823,192.816 875.489,193.983 875.5,195.5C 874.078,195.709 872.745,196.209 871.5,197C 874.768,198.15 878.101,198.984 881.5,199.5C 881.296,201.685 880.63,203.685 879.5,205.5C 875.352,210.119 873.685,215.619 874.5,222C 873.946,229.838 876.279,236.671 881.5,242.5C 878.023,243.167 874.689,243.834 871.5,244.5C 872.29,245.401 873.29,246.068 874.5,246.5C 873.358,248.433 871.692,249.933 869.5,251C 840.371,267.3 811.371,283.8 782.5,300.5C 770.739,291.659 758.072,290.159 744.5,296C 734.694,302.27 729.36,311.104 728.5,322.5C 724.992,321.496 721.826,319.829 719,317.5C 718.735,319.163 719.235,320.663 720.5,322C 698.836,322.5 677.169,322.667 655.5,322.5C 654.974,315.111 652.474,308.444 648,302.5C 647.184,301.177 646.017,300.511 644.5,300.5C 641.374,296.762 637.374,294.262 632.5,293C 626.833,292.333 621.167,292.333 615.5,293C 612.316,293.754 609.649,295.254 607.5,297.5C 598.18,303.124 593.18,311.458 592.5,322.5C 589.477,321.572 586.643,320.238 584,318.5C 582.714,319.35 582.881,320.517 584.5,322C 559,322.167 533.5,322.333 508,322.5C 482.158,322.5 456.658,321.833 431.5,320.5C 484.194,238.457 536.527,156.123 588.5,73.5C 588.435,73.0618 588.601,72.7284 589,72.5C 591.9,77.7828 593.234,77.1161 593,70.5C 598.987,89.411 611.821,97.5777 631.5,95C 634.281,94.4782 636.615,93.3115 638.5,91.5C 649.146,86.2361 654.812,77.5694 655.5,65.5C 668.837,65.3334 682.171,65.5001 695.5,66C 694.833,67 694.167,68 693.5,69C 696.612,68.4568 699.612,67.2901 702.5,65.5C 703.874,69.7144 705.54,73.7144 707.5,77.5 Z"/></g>
<g><path style="opacity:1" fill="#fefdfd" d="M 791.5,65.5 C 796.64,66.4881 801.974,66.8214 807.5,66.5C 829.495,67.0934 851.495,67.4267 873.5,67.5C 879.979,68.4907 886.646,68.824 893.5,68.5C 898.833,68.5 904.167,68.5 909.5,68.5C 909.67,69.8221 909.337,70.9887 908.5,72C 909,72.1667 909.5,72.3333 910,72.5C 912.465,71.3487 914.965,70.3487 917.5,69.5C 918.651,71.7791 919.651,74.1124 920.5,76.5C 924.56,91.0511 934.227,98.7178 949.5,99.5C 957.788,99.7698 964.955,97.1031 971,91.5C 998.442,155.977 1025.61,220.643 1052.5,285.5C 1051.27,286.281 1049.94,286.781 1048.5,287C 1050.86,289.355 1053.19,291.688 1055.5,294C 1054.46,295.174 1053.46,296.341 1052.5,297.5C 1050.61,298.048 1048.94,299.048 1047.5,300.5C 1045.12,298.122 1043.12,295.455 1041.5,292.5C 1041.44,291.957 1041.11,291.624 1040.5,291.5C 1039.57,292.689 1039.24,294.022 1039.5,295.5C 1038.45,295.649 1037.45,295.483 1036.5,295C 1001.94,275.56 967.61,255.893 933.5,236C 939.63,220.854 936.63,207.854 924.5,197C 921.274,194.425 917.607,192.925 913.5,192.5C 909.11,190.627 904.444,190.127 899.5,191C 893.515,192.997 887.848,195.497 882.5,198.5C 881.83,195.327 880.664,192.327 879,189.5C 878.59,190.901 878.09,192.234 877.5,193.5C 837.99,157.924 798.323,122.591 758.5,87.5C 758.5,86.5 758.5,85.5 758.5,84.5C 760.822,83.1979 762.155,81.1979 762.5,78.5C 765.207,74.6932 766.54,70.3599 766.5,65.5C 774.833,65.5 783.167,65.5 791.5,65.5 Z"/></g>
<g><path style="opacity:1" fill="#808080" d="M 798.5,64.5 C 807.682,64.1734 816.682,64.5067 825.5,65.5C 819.31,65.1771 813.31,65.5104 807.5,66.5C 801.974,66.8214 796.64,66.4881 791.5,65.5C 794.059,65.8016 796.393,65.4682 798.5,64.5 Z"/></g>
<g><path style="opacity:1" fill="#131313" d="M 918.5,67.5 C 918.938,67.4346 919.272,67.6012 919.5,68C 918.584,68.2784 917.918,68.7784 917.5,69.5C 914.965,70.3487 912.465,71.3487 910,72.5C 909.5,72.3333 909,72.1667 908.5,72C 909.337,70.9887 909.67,69.8221 909.5,68.5C 904.167,68.5 898.833,68.5 893.5,68.5C 895.265,67.5386 897.265,67.2053 899.5,67.5C 903.182,67.6653 906.848,67.4986 910.5,67C 909.235,65.6626 908.735,64.1626 909,62.5C 912.076,64.4257 915.242,66.0924 918.5,67.5 Z"/></g>
<g><path style="opacity:1" fill="#136ea6" d="M 1184.5,72.5 C 1185.75,70.6612 1185.75,68.8278 1184.5,67C 1185,66.5 1185.5,66 1186,65.5C 1186.67,69.1667 1186.67,72.8333 1186,76.5C 1185.79,74.9419 1185.29,73.6085 1184.5,72.5 Z"/></g>
<g><path style="opacity:1" fill="#290a2f" d="M 628.5,59.5 C 629.21,61.8927 629.877,64.3927 630.5,67C 629.809,68.0674 629.309,69.2341 629,70.5C 628.517,69.552 628.351,68.552 628.5,67.5C 627.022,67.762 625.689,67.4287 624.5,66.5C 625.557,66.0941 626.891,66.0941 628.5,66.5C 628.5,64.1667 628.5,61.8333 628.5,59.5 Z"/></g>
<g><path style="opacity:1" fill="#3d3d3d" d="M 807.5,66.5 C 813.31,65.5104 819.31,65.1771 825.5,65.5C 845.163,66.0097 864.83,66.343 884.5,66.5C 881.038,67.4816 877.371,67.815 873.5,67.5C 851.495,67.4267 829.495,67.0934 807.5,66.5 Z"/></g>
<g><path style="opacity:1" fill="#e3a85f" d="M 951.5,65.5 C 950.539,67.2646 950.205,69.2646 950.5,71.5C 949.091,68.8223 949.257,66.1557 951,63.5C 951.464,64.0944 951.631,64.7611 951.5,65.5 Z"/></g>
<g><path style="opacity:1" fill="#43486a" d="M 1061.5,63.5 C 1063.26,62.5386 1065.26,62.2053 1067.5,62.5C 1067.77,64.4286 1067.27,66.0953 1066,67.5C 1065.51,66.451 1065.67,65.451 1066.5,64.5C 1064.95,63.5481 1063.29,63.2148 1061.5,63.5 Z"/></g>
<g><path style="opacity:1" fill="#353535" d="M 609.5,37.5 C 594.193,48.2659 590.36,62.2659 598,79.5C 608.343,93.9626 621.843,97.9626 638.5,91.5C 636.615,93.3115 634.281,94.4782 631.5,95C 611.821,97.5777 598.987,89.411 593,70.5C 593.234,77.1161 591.9,77.7828 589,72.5C 588.601,72.7284 588.435,73.0618 588.5,73.5C 588.167,73.5 587.833,73.5 587.5,73.5C 586.411,71.8829 584.744,71.0496 582.5,71C 585.667,69.1667 588.833,67.3333 592,65.5C 592.56,52.6829 598.394,43.3495 609.5,37.5 Z"/></g>
<g><path style="opacity:1" fill="#757575" d="M 884.5,66.5 C 889.695,66.1795 894.695,66.5128 899.5,67.5C 897.265,67.2053 895.265,67.5386 893.5,68.5C 886.646,68.824 879.979,68.4907 873.5,67.5C 877.371,67.815 881.038,67.4816 884.5,66.5 Z"/></g>
<g><path style="opacity:1" fill="#b7b0b2" d="M 952.5,68.5 C 952.5,68.1667 952.5,67.8333 952.5,67.5C 955.033,66.097 956.7,66.9303 957.5,70C 956.911,72.633 955.244,73.7997 952.5,73.5C 952.5,71.8333 952.5,70.1667 952.5,68.5 Z"/></g>
<g><path style="opacity:1" fill="#191919" d="M 1156.5,64.5 C 1157.83,66.8333 1157.83,69.1667 1156.5,71.5C 1156.65,70.448 1156.48,69.448 1156,68.5C 1153,70.1667 1150,71.8333 1147,73.5C 1146.74,71.8374 1147.24,70.3374 1148.5,69C 1129.84,68.5001 1111.17,68.3334 1092.5,68.5C 1092.5,69.5 1092.5,70.5 1092.5,71.5C 1092.17,71.5 1091.83,71.5 1091.5,71.5C 1091.5,69.1667 1091.5,66.8333 1091.5,64.5C 1091.83,64.5 1092.17,64.5 1092.5,64.5C 1092.5,65.5 1092.5,66.5 1092.5,67.5C 1110.85,67.8329 1129.18,67.4996 1147.5,66.5C 1146.41,65.3914 1146.41,64.3914 1147.5,63.5C 1150.17,64.8333 1152.83,66.1667 1155.5,67.5C 1156.39,66.675 1156.72,65.675 1156.5,64.5 Z"/></g>
<g><path style="opacity:1" fill="#25428b" d="M 951.5,65.5 C 951.328,66.4916 951.662,67.1583 952.5,67.5C 952.5,67.8333 952.5,68.1667 952.5,68.5C 951.833,69.5 951.167,70.5 950.5,71.5C 950.205,69.2646 950.539,67.2646 951.5,65.5 Z"/></g>
<g><path style="opacity:1" fill="#9e9f9e" d="M 981.5,69.5 C 994.673,68.1746 1008.01,68.1746 1021.5,69.5C 1021.38,70.1067 1021.04,70.44 1020.5,70.5C 1007.68,69.5045 994.677,69.1712 981.5,69.5 Z"/></g>
<g><path style="opacity:1" fill="#736b93" d="M 1184.5,72.5 C 1181.35,73.7318 1179.68,72.3985 1179.5,68.5C 1179.83,67.8333 1180.17,67.1667 1180.5,66.5C 1181.3,68.0777 1181.8,69.7444 1182,71.5C 1182.67,72.2524 1183.5,72.5858 1184.5,72.5 Z"/></g>
<g><path style="opacity:1" fill="#480f48" d="M 732.5,62.5 C 733.855,67.2189 733.855,69.8855 732.5,70.5C 728.5,70.1667 728.5,69.8333 732.5,69.5C 732.5,67.1667 732.5,64.8333 732.5,62.5 Z"/></g>
<g><path style="opacity:1" fill="#480f48" d="M 947.5,65.5 C 948.855,70.2189 948.855,72.8855 947.5,73.5C 943.5,73.1667 943.5,72.8333 947.5,72.5C 947.5,70.1667 947.5,67.8333 947.5,65.5 Z"/></g>
<g><path style="opacity:1" fill="#61230c" d="M 1058.5,65.5 C 1059.86,70.2189 1059.86,72.8855 1058.5,73.5C 1054.5,73.1667 1054.5,72.8333 1058.5,72.5C 1058.15,69.9592 1058.15,67.6258 1058.5,65.5 Z"/></g>
<g><path style="opacity:1" fill="#484848" d="M 1167.5,56.5 C 1165.6,62.3529 1165.1,68.3529 1166,74.5C 1171.95,88.7207 1182.45,93.7207 1197.5,89.5C 1182.98,95.177 1172.15,90.8436 1165,76.5C 1163.61,71.9053 1163.27,67.2387 1164,62.5C 1164.72,60.1209 1165.88,58.1209 1167.5,56.5 Z"/></g>
<g><path style="opacity:1" fill="#2f2f2f" d="M 762.5,78.5 C 762.155,81.1979 760.822,83.1979 758.5,84.5C 759.34,82.1475 760.674,80.1475 762.5,78.5 Z"/></g>
<g><path style="opacity:1" fill="#383838" d="M 707.5,77.5 C 716.947,92.5469 730.281,97.5469 747.5,92.5C 746.319,94.0672 744.653,94.9005 742.5,95C 740,95.1667 737.5,95.3333 735,95.5C 721.943,95.2507 712.776,89.2507 707.5,77.5 Z"/></g>
<g><path style="opacity:1" fill="#2e2e2e" d="M 758.5,84.5 C 758.5,85.5 758.5,86.5 758.5,87.5C 757.5,87.5 756.5,87.5 755.5,87.5C 756.167,86.1667 757.167,85.1667 758.5,84.5 Z"/></g>
<g><path style="opacity:1" fill="#333333" d="M 755.5,87.5 C 754.738,89.2624 753.404,90.2624 751.5,90.5C 752.262,88.7376 753.596,87.7376 755.5,87.5 Z"/></g>
<g><path style="opacity:1" fill="#1e1e1e" d="M 751.5,90.5 C 750.713,92.1042 749.38,92.7709 747.5,92.5C 748.514,91.3263 749.847,90.6596 751.5,90.5 Z"/></g>
<g><path style="opacity:1" fill="#3c3c3c" d="M 1168.5,44.5 C 1159.31,53.2593 1156.14,63.9259 1159,76.5C 1166.69,94.763 1180.19,101.43 1199.5,96.5C 1180.6,102.809 1166.76,96.8094 1158,78.5C 1157.02,76.26 1156.52,73.9267 1156.5,71.5C 1157.83,69.1667 1157.83,66.8333 1156.5,64.5C 1157.72,55.9948 1161.72,49.3282 1168.5,44.5 Z"/></g>
<g><path style="opacity:1" fill="#195e8d" d="M 1126.5,110.5 C 1127.48,113.287 1127.81,116.287 1127.5,119.5C 1132.5,120.003 1132.17,120.336 1126.5,120.5C 1126.5,117.167 1126.5,113.833 1126.5,110.5 Z"/></g>
<g><path style="opacity:1" fill="#0c0f18" d="M 1145.5,111.5 C 1147.36,110.207 1149.36,110.207 1151.5,111.5C 1149.78,111.746 1147.78,111.746 1145.5,111.5 Z"/></g>
<g><path style="opacity:1" fill="#27212b" d="M 1146.5,116.5 C 1147.77,117.189 1147.77,118.023 1146.5,119C 1148.17,119.333 1149.83,119.667 1151.5,120C 1149.1,120.814 1146.76,120.647 1144.5,119.5C 1145.19,118.482 1145.86,117.482 1146.5,116.5 Z"/></g>
<g><path style="opacity:1" fill="#616161" d="M 758.5,87.5 C 798.323,122.591 837.99,157.924 877.5,193.5C 877.167,194.5 876.5,195.167 875.5,195.5C 875.489,193.983 874.823,192.816 873.5,192C 835.833,158.333 798.167,124.667 760.5,91C 759.177,90.1841 758.511,89.0174 758.5,87.5 Z"/></g>
<g><path style="opacity:1" fill="#0d76b3" d="M 838.5,135.5 C 839.641,138.64 839.808,141.973 839,145.5C 838.782,142.574 838.282,139.74 837.5,137C 838.056,136.617 838.389,136.117 838.5,135.5 Z"/></g>
<g><path style="opacity:1" fill="#afadbc" d="M 858.5,142.5 C 859.526,138.27 859.526,137.603 858.5,140.5C 857.167,140.5 855.833,140.5 854.5,140.5C 853.079,136.896 854.413,135.396 858.5,136C 860.984,138.657 861.15,141.49 859,144.5C 858.536,143.906 858.369,143.239 858.5,142.5 Z"/></g>
<g><path style="opacity:1" fill="#7c4919" d="M 858.5,142.5 C 857.167,141.833 855.833,141.167 854.5,140.5C 855.833,140.5 857.167,140.5 858.5,140.5C 859.526,137.603 859.526,138.27 858.5,142.5 Z"/></g>
<g><path style="opacity:1" fill="#616161" d="M 1084.5,89.5 C 1108.84,112.006 1133.68,134.006 1159,155.5C 1159.38,154.944 1159.88,154.611 1160.5,154.5C 1160.57,156.027 1159.91,157.027 1158.5,157.5C 1133.47,135.133 1108.13,113.133 1082.5,91.5C 1082.83,90.5 1083.5,89.8333 1084.5,89.5 Z"/></g>
<g><path style="opacity:1" fill="#303030" d="M 1215.5,171.5 C 1201.99,152.539 1185.65,149.706 1166.5,163C 1164.64,165.688 1162.64,168.188 1160.5,170.5C 1161.05,167.733 1162.38,165.4 1164.5,163.5C 1161.59,162.019 1158.59,160.685 1155.5,159.5C 1156.36,158.575 1157.36,157.908 1158.5,157.5C 1159.91,157.027 1160.57,156.027 1160.5,154.5C 1160.35,153.448 1160.52,152.448 1161,151.5C 1161.33,151.833 1161.67,152.167 1162,152.5C 1163.01,155.845 1164.51,158.845 1166.5,161.5C 1179.73,151.364 1193.4,150.864 1207.5,160C 1211.62,162.934 1214.29,166.768 1215.5,171.5 Z"/></g>
<g><path style="opacity:1" fill="#393939" d="M 1166.5,174.5 C 1169.42,167.061 1174.76,162.894 1182.5,162C 1175.83,164.507 1170.5,168.673 1166.5,174.5 Z"/></g>
<g><path style="opacity:1" fill="#494949" d="M 920.5,76.5 C 923.832,85.3367 929.832,91.8367 938.5,96C 957.891,101.303 971.557,94.8031 979.5,76.5C 978.895,81.8769 976.561,86.3769 972.5,90C 1001.7,159.108 1030.03,226.941 1057.5,293.5C 1067.63,291.26 1077.3,292.426 1086.5,297C 1087.71,298.039 1088.71,299.206 1089.5,300.5C 1077.79,292.496 1065.46,291.496 1052.5,297.5C 1053.46,296.341 1054.46,295.174 1055.5,294C 1053.19,291.688 1050.86,289.355 1048.5,287C 1049.94,286.781 1051.27,286.281 1052.5,285.5C 1025.61,220.643 998.442,155.977 971,91.5C 964.955,97.1031 957.788,99.7698 949.5,99.5C 934.227,98.7178 924.56,91.0511 920.5,76.5 Z"/></g>
<g><path style="opacity:1" fill="#414141" d="M 1160.5,170.5 C 1159.07,174.816 1158.07,179.316 1157.5,184C 1158.18,188.918 1159.18,193.752 1160.5,198.5C 1157.38,194.45 1156.04,189.783 1156.5,184.5C 1156.04,179.217 1157.38,174.55 1160.5,170.5 Z"/></g>
<g><path style="opacity:1" fill="#531130" d="M 500.5,177.5 C 502.857,177.337 505.19,177.503 507.5,178C 505.527,178.495 503.527,178.662 501.5,178.5C 501.5,179.5 501.5,180.5 501.5,181.5C 508.167,181.833 508.167,182.167 501.5,182.5C 501.66,184.199 501.494,185.866 501,187.5C 500.502,184.183 500.335,180.85 500.5,177.5 Z"/></g>
<g><path style="opacity:1" fill="#444444" d="M 1215.5,171.5 C 1220.55,179.905 1220.72,188.572 1216,197.5C 1216.48,193.061 1216.98,188.561 1217.5,184C 1217.23,179.758 1216.56,175.591 1215.5,171.5 Z"/></g>
<g><path style="opacity:1" fill="#121212" d="M 882.5,198.5 C 882.5,199.167 882.167,199.5 881.5,199.5C 878.101,198.984 874.768,198.15 871.5,197C 872.745,196.209 874.078,195.709 875.5,195.5C 876.5,195.167 877.167,194.5 877.5,193.5C 878.09,192.234 878.59,190.901 879,189.5C 880.664,192.327 881.83,195.327 882.5,198.5 Z"/></g>
<g><path style="opacity:1" fill="#fcfbfa" d="M 913.5,192.5 C 935.193,203.081 940.36,219.081 929,240.5C 924.522,245.306 919.356,248.973 913.5,251.5C 896.054,254.034 883.887,247.367 877,231.5C 874.528,222.496 875.361,213.829 879.5,205.5C 883.745,200.764 888.745,196.931 894.5,194C 900.757,192.683 907.091,192.183 913.5,192.5 Z"/></g>
<g><path style="opacity:1" fill="#4b4b4b" d="M 913.5,192.5 C 907.091,192.183 900.757,192.683 894.5,194C 888.745,196.931 883.745,200.764 879.5,205.5C 880.63,203.685 881.296,201.685 881.5,199.5C 882.167,199.5 882.5,199.167 882.5,198.5C 887.848,195.497 893.515,192.997 899.5,191C 904.444,190.127 909.11,190.627 913.5,192.5 Z"/></g>
<g><path style="opacity:1" fill="#8b6a6c" d="M 1045.5,194.5 C 1046.12,194.611 1046.62,194.944 1047,195.5C 1047.67,197.5 1047.67,199.5 1047,201.5C 1045.93,203.283 1044.43,203.783 1042.5,203C 1043.45,202.517 1044.45,202.351 1045.5,202.5C 1045.5,201.5 1045.5,200.5 1045.5,199.5C 1040.43,199.639 1039.43,197.806 1042.5,194C 1043.75,193.26 1044.75,193.427 1045.5,194.5 Z"/></g>
<g><path style="opacity:1" fill="#f5f9fa" d="M 1045.5,194.5 C 1045.5,195.833 1045.5,197.167 1045.5,198.5C 1044.32,198.719 1043.32,198.386 1042.5,197.5C 1042.88,195.787 1043.88,194.787 1045.5,194.5 Z"/></g>
<g><path style="opacity:1" fill="#3e3e3e" d="M 1166.5,174.5 C 1162.18,192.889 1169.18,203.889 1187.5,207.5C 1205.55,204.738 1212.72,194.405 1209,176.5C 1203.97,165.891 1195.47,160.724 1183.5,161C 1205.99,161.168 1214.82,172.335 1210,194.5C 1202.81,206.841 1192.31,211.007 1178.5,207C 1164.95,199.437 1160.95,188.603 1166.5,174.5 Z"/></g>
<g><path style="opacity:1" fill="#736b93" d="M 1184.5,189.5 C 1181.35,190.732 1179.68,189.399 1179.5,185.5C 1179.83,184.833 1180.17,184.167 1180.5,183.5C 1181.3,185.078 1181.8,186.744 1182,188.5C 1182.67,189.252 1183.5,189.586 1184.5,189.5 Z"/></g>
<g><path style="opacity:1" fill="#2c547b" d="M 1188.5,180.5 C 1189.29,181.609 1189.79,182.942 1190,184.5C 1190.75,185.126 1191.58,185.626 1192.5,186C 1191.22,186.684 1190.05,186.517 1189,185.5C 1188.51,183.866 1188.34,182.199 1188.5,180.5 Z"/></g>
<g><path style="opacity:1" fill="#136ea6" d="M 1184.5,189.5 C 1185.75,187.661 1185.75,185.828 1184.5,184C 1185,183.5 1185.5,183 1186,182.5C 1186.67,186.167 1186.67,189.833 1186,193.5C 1185.79,191.942 1185.29,190.609 1184.5,189.5 Z"/></g>
<g><path style="opacity:1" fill="#50516c" d="M 1026.5,197.5 C 1027.04,197.56 1027.38,197.893 1027.5,198.5C 1026.69,199.814 1025.69,200.981 1024.5,202C 1025.83,202.333 1027.17,202.667 1028.5,203C 1026.42,203.808 1024.42,203.641 1022.5,202.5C 1023.86,200.814 1025.19,199.148 1026.5,197.5 Z"/></g>
<g><path style="opacity:1" fill="#363636" d="M 1160.5,198.5 C 1172.3,215.032 1187.3,218.532 1205.5,209C 1208.7,205.612 1211.7,202.778 1214.5,200.5C 1206.14,213.007 1194.47,217.84 1179.5,215C 1170.61,212.253 1164.28,206.753 1160.5,198.5 Z"/></g>
<g><path style="opacity:1" fill="#2e71a5" d="M 905.5,216.5 C 906.643,219.976 906.81,223.642 906,227.5C 905.999,224.313 905.166,221.48 903.5,219C 904.381,218.292 905.047,217.458 905.5,216.5 Z"/></g>
<g><path style="opacity:1" fill="#0a4e97" d="M 898.5,230.5 C 898.747,227.061 898.414,223.728 897.5,220.5C 898.117,220.389 898.617,220.056 899,219.5C 899.81,223.358 899.643,227.024 898.5,230.5 Z"/></g>
<g><path style="opacity:1" fill="#bfa89e" d="M 897.5,220.5 C 898.414,223.728 898.747,227.061 898.5,230.5C 897.596,229.791 897.263,228.791 897.5,227.5C 892.841,227.189 891.507,224.856 893.5,220.5C 894.995,219.295 896.328,219.295 897.5,220.5 Z"/></g>
<g><path style="opacity:1" fill="#200b21" d="M 910.5,216.5 C 916.167,216.664 916.5,216.997 911.5,217.5C 911.5,218.5 911.5,219.5 911.5,220.5C 912.552,220.351 913.552,220.517 914.5,221C 913.234,221.309 912.067,221.809 911,222.5C 910.505,220.527 910.338,218.527 910.5,216.5 Z"/></g>
<g><path style="opacity:1" fill="#535353" d="M 587.5,73.5 C 587.833,73.5 588.167,73.5 588.5,73.5C 536.527,156.123 484.194,238.457 431.5,320.5C 429.155,322.357 428.822,324.69 430.5,327.5C 429.833,328.833 429.167,330.167 428.5,331.5C 428.817,325.091 428.317,318.757 427,312.5C 425.04,308.066 422.54,304.066 419.5,300.5C 421.017,300.511 422.184,301.177 423,302.5C 426.475,307.784 429.142,313.451 431,319.5C 482.941,237.266 535.108,155.266 587.5,73.5 Z"/></g>
<g><path style="opacity:1" fill="#fdfdfd" d="M 1038.5,297.5 C 1037.77,298.712 1036.77,299.712 1035.5,300.5C 1039.31,301.167 1042.98,301.834 1046.5,302.5C 1040.82,307.874 1037.82,314.54 1037.5,322.5C 1034.48,321.572 1031.64,320.238 1029,318.5C 1027.71,319.35 1027.88,320.517 1029.5,322C 998.502,322.5 967.502,322.667 936.5,322.5C 936.5,321.5 936.5,320.5 936.5,319.5C 931.374,298.573 918.041,289.739 896.5,293C 882.538,298.108 874.871,307.941 873.5,322.5C 869.992,321.496 866.826,319.829 864,317.5C 863.735,319.163 864.235,320.663 865.5,322C 840.836,322.5 816.169,322.667 791.5,322.5C 791.498,315.479 789.165,309.479 784.5,304.5C 784.586,303.504 784.252,302.671 783.5,302C 814.274,283.951 845.274,266.451 876.5,249.5C 876.343,250.873 876.51,252.207 877,253.5C 878.609,250.593 880.442,247.927 882.5,245.5C 887.848,248.503 893.515,251.003 899.5,253C 904.444,253.873 909.11,253.373 913.5,251.5C 917.604,251.116 921.271,249.616 924.5,247C 927.378,244.291 930.044,241.458 932.5,238.5C 967.861,258.179 1003.19,277.845 1038.5,297.5 Z"/></g>
<g><path style="opacity:1" fill="#070707" d="M 871.5,244.5 C 875.371,244.185 879.038,244.518 882.5,245.5C 880.442,247.927 878.609,250.593 877,253.5C 876.51,252.207 876.343,250.873 876.5,249.5C 876.068,248.29 875.401,247.29 874.5,246.5C 873.29,246.068 872.29,245.401 871.5,244.5 Z"/></g>
<g><path style="opacity:1" fill="#b89fa4" d="M 981.5,245.5 C 982.822,245.33 983.989,245.663 985,246.5C 985.667,249.167 985.667,251.833 985,254.5C 981.229,255.749 979.396,254.249 979.5,250C 979.759,248.213 980.425,246.713 981.5,245.5 Z"/></g>
<g><path style="opacity:1" fill="#afadbc" d="M 1003.5,252.5 C 1004.53,248.27 1004.53,247.603 1003.5,250.5C 1002.17,250.5 1000.83,250.5 999.5,250.5C 998.079,246.896 999.413,245.396 1003.5,246C 1005.98,248.657 1006.15,251.49 1004,254.5C 1003.54,253.906 1003.37,253.239 1003.5,252.5 Z"/></g>
<g><path style="opacity:1" fill="#454545" d="M 879.5,205.5 C 875.361,213.829 874.528,222.496 877,231.5C 883.887,247.367 896.054,254.034 913.5,251.5C 909.11,253.373 904.444,253.873 899.5,253C 893.515,251.003 887.848,248.503 882.5,245.5C 879.038,244.518 875.371,244.185 871.5,244.5C 874.689,243.834 878.023,243.167 881.5,242.5C 876.279,236.671 873.946,229.838 874.5,222C 873.685,215.619 875.352,210.119 879.5,205.5 Z"/></g>
<g><path style="opacity:1" fill="#7c4919" d="M 1003.5,252.5 C 1002.17,251.833 1000.83,251.167 999.5,250.5C 1000.83,250.5 1002.17,250.5 1003.5,250.5C 1004.53,247.603 1004.53,248.27 1003.5,252.5 Z"/></g>
<g><path style="opacity:1" fill="#791402" d="M 806.5,256.5 C 807.641,259.64 807.808,262.973 807,266.5C 806.782,263.574 806.282,260.74 805.5,258C 806.056,257.617 806.389,257.117 806.5,256.5 Z"/></g>
<g><path style="opacity:1" fill="#4d4d4d" d="M 913.5,192.5 C 917.607,192.925 921.274,194.425 924.5,197C 936.63,207.854 939.63,220.854 933.5,236C 967.61,255.893 1001.94,275.56 1036.5,295C 1037.45,295.483 1038.45,295.649 1039.5,295.5C 1039.24,294.022 1039.57,292.689 1040.5,291.5C 1041.11,291.624 1041.44,291.957 1041.5,292.5C 1040.77,294.294 1039.77,295.961 1038.5,297.5C 1003.19,277.845 967.861,258.179 932.5,238.5C 930.044,241.458 927.378,244.291 924.5,247C 921.271,249.616 917.604,251.116 913.5,251.5C 919.356,248.973 924.522,245.306 929,240.5C 940.36,219.081 935.193,203.081 913.5,192.5 Z"/></g>
<g><path style="opacity:1" fill="#fafafa" d="M 95.5,319.5 C 95.5,321.833 95.5,324.167 95.5,326.5C 89.6826,348.253 75.6826,356.42 53.5,351C 38.3396,342.839 32.8396,330.339 37,313.5C 45.1837,295.653 58.6837,289.82 77.5,296C 87.1472,301.135 93.1472,308.968 95.5,319.5 Z"/></g>
<g><path style="opacity:1" fill="#fbfafb" d="M 189.5,295.5 C 204.549,304.951 209.549,318.284 204.5,335.5C 196.333,349.958 184,355.458 167.5,352C 156.678,347.485 149.678,339.651 146.5,328.5C 145.591,313.982 151.257,302.982 163.5,295.5C 172.157,292.892 180.824,292.892 189.5,295.5 Z"/></g>
<g><path style="opacity:1" fill="#fdfcfc" d="M 299.5,351.5 C 280.193,356.43 266.693,349.763 259,331.5C 256.139,318.926 259.306,308.259 268.5,299.5C 280.708,291.679 293.042,291.513 305.5,299C 319.253,311.929 321.086,326.429 311,342.5C 307.551,346.123 303.717,349.123 299.5,351.5 Z"/></g>
<g><path style="opacity:1" fill="#fbfbfb" d="M 419.5,300.5 C 422.54,304.066 425.04,308.066 427,312.5C 428.317,318.757 428.817,325.091 428.5,331.5C 420.557,349.803 406.891,356.303 387.5,351C 378.832,346.837 372.832,340.337 369.5,331.5C 368.473,322.663 369.973,314.329 374,306.5C 377.038,303.631 379.871,300.631 382.5,297.5C 395.444,291.495 407.777,292.495 419.5,300.5 Z"/></g>
<g><path style="opacity:1" fill="#faf9f9" d="M 644.5,300.5 C 647.54,304.066 650.04,308.066 652,312.5C 653.317,318.757 653.817,325.091 653.5,331.5C 645.557,349.803 631.891,356.303 612.5,351C 603.832,346.837 597.832,340.337 594.5,331.5C 593.473,322.663 594.973,314.329 599,306.5C 602.038,303.631 604.871,300.631 607.5,297.5C 620.444,291.495 632.777,292.495 644.5,300.5 Z"/></g>
<g><path style="opacity:1" fill="#fcfcfb" d="M 784.5,304.5 C 788.642,311.188 790.642,318.521 790.5,326.5C 784.027,349.241 769.36,357.074 746.5,350C 731.529,340.542 727.029,327.375 733,310.5C 743.714,293.527 758.214,289.36 776.5,298C 779.331,300.001 781.997,302.167 784.5,304.5 Z"/></g>
<g><path style="opacity:1" fill="#fcfbfa" d="M 935.5,319.5 C 935.5,321.833 935.5,324.167 935.5,326.5C 929.683,348.253 915.683,356.42 893.5,351C 878.34,342.839 872.84,330.339 877,313.5C 885.184,295.653 898.684,289.82 917.5,296C 927.147,301.135 933.147,308.968 935.5,319.5 Z"/></g>
<g><path style="opacity:1" fill="#1b1b1b" d="M 1041.5,292.5 C 1043.12,295.455 1045.12,298.122 1047.5,300.5C 1048.94,299.048 1050.61,298.048 1052.5,297.5C 1051.14,299.527 1049.47,301.194 1047.5,302.5C 1047.17,302.5 1046.83,302.5 1046.5,302.5C 1042.98,301.834 1039.31,301.167 1035.5,300.5C 1036.77,299.712 1037.77,298.712 1038.5,297.5C 1039.77,295.961 1040.77,294.294 1041.5,292.5 Z"/></g>
<g><path style="opacity:1" fill="#fafaf9" d="M 1089.5,300.5 C 1092.54,304.066 1095.04,308.066 1097,312.5C 1098.32,318.757 1098.82,325.091 1098.5,331.5C 1090.56,349.803 1076.89,356.303 1057.5,351C 1048.83,346.837 1042.83,340.337 1039.5,331.5C 1037.67,320.461 1040.34,310.794 1047.5,302.5C 1049.47,301.194 1051.14,299.527 1052.5,297.5C 1065.46,291.496 1077.79,292.496 1089.5,300.5 Z"/></g>
<g><path style="opacity:1" fill="#f6f6f6" d="M 1199.5,351.5 C 1180.19,356.43 1166.69,349.763 1159,331.5C 1156.14,318.926 1159.31,308.259 1168.5,299.5C 1180.71,291.679 1193.04,291.513 1205.5,299C 1219.25,311.948 1221.09,326.448 1211,342.5C 1207.55,346.123 1203.72,349.123 1199.5,351.5 Z"/></g>
<g><path style="opacity:1" fill="#3a3a3a" d="M 189.5,295.5 C 180.824,292.892 172.157,292.892 163.5,295.5C 164.6,294.442 165.934,293.608 167.5,293C 173.167,292.333 178.833,292.333 184.5,293C 186.491,293.374 188.158,294.207 189.5,295.5 Z"/></g>
<g><path style="opacity:1" fill="#3b3b3b" d="M 419.5,300.5 C 407.777,292.495 395.444,291.495 382.5,297.5C 384.649,295.254 387.316,293.754 390.5,293C 399.681,291.378 408.347,292.711 416.5,297C 417.71,298.039 418.71,299.206 419.5,300.5 Z"/></g>
<g><path style="opacity:1" fill="#3b3b3b" d="M 644.5,300.5 C 632.777,292.495 620.444,291.495 607.5,297.5C 609.649,295.254 612.316,293.754 615.5,293C 621.167,292.333 626.833,292.333 632.5,293C 637.374,294.262 641.374,296.762 644.5,300.5 Z"/></g>
<g><path style="opacity:1" fill="#f9f9f8" d="M 1197.5,344.5 C 1182.45,348.721 1171.95,343.721 1166,329.5C 1165.1,323.353 1165.6,317.353 1167.5,311.5C 1175.72,301.028 1186.05,298.195 1198.5,303C 1211.78,312.733 1213.95,324.567 1205,338.5C 1202.52,340.639 1200.02,342.639 1197.5,344.5 Z"/></g>
<g><path style="opacity:1" fill="#0d76b3" d="M 968.5,303.5 C 969.641,306.64 969.808,309.973 969,313.5C 968.782,310.574 968.282,307.74 967.5,305C 968.056,304.617 968.389,304.117 968.5,303.5 Z"/></g>
<g><path style="opacity:1" fill="#b89fa4" d="M 823.5,303.5 C 824.822,303.33 825.989,303.663 827,304.5C 827.667,307.167 827.667,309.833 827,312.5C 823.229,313.749 821.396,312.249 821.5,308C 821.759,306.213 822.425,304.713 823.5,303.5 Z"/></g>
<g><path style="opacity:1" fill="#afadbc" d="M 988.5,310.5 C 989.526,306.27 989.526,305.603 988.5,308.5C 987.167,308.5 985.833,308.5 984.5,308.5C 983.079,304.896 984.413,303.396 988.5,304C 990.984,306.657 991.15,309.49 989,312.5C 988.536,311.906 988.369,311.239 988.5,310.5 Z"/></g>
<g><path style="opacity:1" fill="#494949" d="M 607.5,297.5 C 604.871,300.631 602.038,303.631 599,306.5C 594.973,314.329 593.473,322.663 594.5,331.5C 593.651,329.112 592.651,326.779 591.5,324.5C 591.918,323.778 592.584,323.278 593.5,323C 593.272,322.601 592.938,322.435 592.5,322.5C 593.18,311.458 598.18,303.124 607.5,297.5 Z"/></g>
<g><path style="opacity:1" fill="#363636" d="M 1197.5,344.5 C 1200.02,342.639 1202.52,340.639 1205,338.5C 1213.95,324.567 1211.78,312.733 1198.5,303C 1186.05,298.195 1175.72,301.028 1167.5,311.5C 1173.56,301.142 1182.56,297.309 1194.5,300C 1208.06,305.248 1213.56,315.081 1211,329.5C 1209.22,337.136 1204.72,342.136 1197.5,344.5 Z"/></g>
<g><path style="opacity:1" fill="#f7f7f7" d="M 8.5,306.5 C 15.7556,312.139 23.4223,317.306 31.5,322C 32.2524,322.671 32.5858,323.504 32.5,324.5C 24.1387,329.101 15.972,334.101 8,339.5C 7.17431,328.326 7.34097,317.326 8.5,306.5 Z"/></g>
<g><path style="opacity:1" fill="#8b6a6c" d="M 118.5,307.5 C 119.117,307.611 119.617,307.944 120,308.5C 120.667,310.5 120.667,312.5 120,314.5C 118.933,316.283 117.433,316.783 115.5,316C 116.448,315.517 117.448,315.351 118.5,315.5C 118.5,314.5 118.5,313.5 118.5,312.5C 113.426,312.639 112.426,310.806 115.5,307C 116.749,306.26 117.749,306.427 118.5,307.5 Z"/></g>
<g><path style="opacity:1" fill="#f5f9fa" d="M 118.5,307.5 C 118.5,308.833 118.5,310.167 118.5,311.5C 117.325,311.719 116.325,311.386 115.5,310.5C 115.879,308.787 116.879,307.787 118.5,307.5 Z"/></g>
<g><path style="opacity:1" fill="#aa6459" d="M 520.5,305.5 C 522.227,307.516 523.061,309.849 523,312.5C 521.097,310.559 520.264,308.226 520.5,305.5 Z"/></g>
<g><path style="opacity:1" fill="#3d3d3d" d="M 936.5,319.5 C 936.167,319.5 935.833,319.5 935.5,319.5C 933.147,308.968 927.147,301.135 917.5,296C 898.684,289.82 885.184,295.653 877,313.5C 872.84,330.339 878.34,342.839 893.5,351C 915.683,356.42 929.683,348.253 935.5,326.5C 935.833,326.5 936.167,326.5 936.5,326.5C 932.991,344.008 922.325,353.342 904.5,354.5C 885.779,352.446 875.446,342.113 873.5,323.5C 873.5,323.167 873.5,322.833 873.5,322.5C 874.871,307.941 882.538,298.108 896.5,293C 918.041,289.739 931.374,298.573 936.5,319.5 Z"/></g>
<g><path style="opacity:1" fill="#7c4919" d="M 988.5,310.5 C 987.167,309.833 985.833,309.167 984.5,308.5C 985.833,308.5 987.167,308.5 988.5,308.5C 989.526,305.603 989.526,306.27 988.5,310.5 Z"/></g>
<g><path style="opacity:1" fill="#3c3c3c" d="M 1199.5,351.5 C 1203.72,349.123 1207.55,346.123 1211,342.5C 1221.09,326.448 1219.25,311.948 1205.5,299C 1193.04,291.513 1180.71,291.679 1168.5,299.5C 1171.48,296.339 1175.14,294.172 1179.5,293C 1198.3,289.645 1211.13,296.812 1218,314.5C 1220.92,327.75 1217.42,338.916 1207.5,348C 1205.18,349.993 1202.52,351.159 1199.5,351.5 Z"/></g>
<g><path style="opacity:1" fill="#340e01" d="M 503.5,311.5 C 504.568,310.566 505.901,310.232 507.5,310.5C 507.378,314.838 507.045,315.172 506.5,311.5C 505.5,311.5 504.5,311.5 503.5,311.5 Z"/></g>
<g><path style="opacity:1" fill="#3b3b3b" d="M 96.5,319.5 C 96.1667,319.5 95.8333,319.5 95.5,319.5C 93.1472,308.968 87.1472,301.135 77.5,296C 58.6837,289.82 45.1837,295.653 37,313.5C 32.8396,330.339 38.3396,342.839 53.5,351C 75.6826,356.42 89.6826,348.253 95.5,326.5C 95.8333,326.5 96.1667,326.5 96.5,326.5C 92.9914,344.008 82.3247,353.342 64.5,354.5C 53.5854,354.128 45.0854,349.461 39,340.5C 36.2814,335.129 34.1147,329.796 32.5,324.5C 32.5858,323.504 32.2524,322.671 31.5,322C 23.4223,317.306 15.7556,312.139 8.5,306.5C 16.9436,311.226 25.2769,316.226 33.5,321.5C 37.8974,299.467 51.2307,289.967 73.5,293C 86.6334,297.106 94.3,305.94 96.5,319.5 Z"/></g>
<g><path style="opacity:1" fill="#2e71a5" d="M 905.5,317.5 C 906.643,320.976 906.81,324.642 906,328.5C 905.999,325.313 905.166,322.48 903.5,320C 904.381,319.292 905.047,318.458 905.5,317.5 Z"/></g>
<g><path style="opacity:1" fill="#cdbebb" d="M 289.5,326.5 C 288.5,326.833 287.833,327.5 287.5,328.5C 287.167,328.5 286.833,328.5 286.5,328.5C 286.5,325.833 286.5,323.167 286.5,320.5C 288.251,317.805 290.584,317.139 293.5,318.5C 294.86,322.447 293.526,325.114 289.5,326.5 Z"/></g>
<g><path style="opacity:1" fill="#1e1e1e" d="M 163.5,295.5 C 151.257,302.982 145.591,313.982 146.5,328.5C 146.167,328.5 145.833,328.5 145.5,328.5C 145.66,326.801 145.494,325.134 145,323.5C 141.912,325.294 138.746,326.961 135.5,328.5C 134.913,327.767 134.913,326.767 135.5,325.5C 136.043,325.44 136.376,325.107 136.5,324.5C 123.006,323.175 109.673,323.175 96.5,324.5C 96.5,325.167 96.5,325.833 96.5,326.5C 96.1667,326.5 95.8333,326.5 95.5,326.5C 95.5,324.167 95.5,321.833 95.5,319.5C 95.8333,319.5 96.1667,319.5 96.5,319.5C 96.5,320.5 96.5,321.5 96.5,322.5C 109.85,322.833 123.183,322.499 136.5,321.5C 135.41,320.391 135.41,319.391 136.5,318.5C 139.148,320.658 142.148,321.992 145.5,322.5C 145.981,309.708 151.981,300.708 163.5,295.5 Z"/></g>
<g><path style="opacity:1" fill="#4c104b" d="M 760.5,317.5 C 761.643,320.976 761.81,324.642 761,328.5C 760.999,325.313 760.166,322.48 758.5,320C 759.381,319.292 760.047,318.458 760.5,317.5 Z"/></g>
<g><path style="opacity:1" fill="#4c104b" d="M 1187.5,317.5 C 1188.64,320.976 1188.81,324.642 1188,328.5C 1188,325.313 1187.17,322.48 1185.5,320C 1186.38,319.292 1187.05,318.458 1187.5,317.5 Z"/></g>
<g><path style="opacity:1" fill="#136ea6" d="M 286.5,320.5 C 286.5,323.167 286.5,325.833 286.5,328.5C 286.649,329.552 286.483,330.552 286,331.5C 285.79,329.942 285.29,328.609 284.5,327.5C 285.752,325.661 285.752,323.828 284.5,322C 285.044,321.283 285.711,320.783 286.5,320.5 Z"/></g>
<g><path style="opacity:1" fill="#0a4e97" d="M 396.5,331.5 C 396.747,328.061 396.414,324.728 395.5,321.5C 396.117,321.389 396.617,321.056 397,320.5C 397.81,324.358 397.643,328.024 396.5,331.5 Z"/></g>
<g><path style="opacity:1" fill="#136ea6" d="M 616.5,327.5 C 617.752,325.661 617.752,323.828 616.5,322C 617,321.5 617.5,321 618,320.5C 618.667,324.167 618.667,327.833 618,331.5C 617.79,329.942 617.29,328.609 616.5,327.5 Z"/></g>
<g><path style="opacity:1" fill="#894b14" d="M 623.5,318.5 C 624.641,321.64 624.808,324.973 624,328.5C 623.667,325.833 623.333,323.167 623,320.5C 622.346,321.696 621.846,321.696 621.5,320.5C 622.243,319.818 622.909,319.151 623.5,318.5 Z"/></g>
<g><path style="opacity:1" fill="#136ea6" d="M 753.5,327.5 C 754.752,325.661 754.752,323.828 753.5,322C 754,321.5 754.5,321 755,320.5C 755.667,324.167 755.667,327.833 755,331.5C 754.79,329.942 754.29,328.609 753.5,327.5 Z"/></g>
<g><path style="opacity:1" fill="#894b14" d="M 767.5,318.5 C 768.641,321.64 768.808,324.973 768,328.5C 767.667,325.833 767.333,323.167 767,320.5C 766.346,321.696 765.846,321.696 765.5,320.5C 766.243,319.818 766.909,319.151 767.5,318.5 Z"/></g>
<g><path style="opacity:1" fill="#0a4e97" d="M 898.5,331.5 C 898.747,328.061 898.414,324.728 897.5,321.5C 898.117,321.389 898.617,321.056 899,320.5C 899.81,324.358 899.643,328.024 898.5,331.5 Z"/></g>
<g><path style="opacity:1" fill="#136ea6" d="M 1061.5,327.5 C 1062.75,325.661 1062.75,323.828 1061.5,322C 1062,321.5 1062.5,321 1063,320.5C 1063.67,324.167 1063.67,327.833 1063,331.5C 1062.79,329.942 1062.29,328.609 1061.5,327.5 Z"/></g>
<g><path style="opacity:1" fill="#894b14" d="M 1068.5,318.5 C 1069.64,321.64 1069.81,324.973 1069,328.5C 1068.67,325.833 1068.33,323.167 1068,320.5C 1067.35,321.696 1066.85,321.696 1066.5,320.5C 1067.24,319.818 1067.91,319.151 1068.5,318.5 Z"/></g>
<g><path style="opacity:1" fill="#bfa89e" d="M 395.5,321.5 C 396.414,324.728 396.747,328.061 396.5,331.5C 395.596,330.791 395.263,329.791 395.5,328.5C 390.841,328.189 389.507,325.856 391.5,321.5C 392.995,320.295 394.328,320.295 395.5,321.5 Z"/></g>
<g><path style="opacity:1" fill="#bfa89e" d="M 897.5,321.5 C 898.414,324.728 898.747,328.061 898.5,331.5C 897.596,330.791 897.263,329.791 897.5,328.5C 892.841,328.189 891.507,325.856 893.5,321.5C 894.995,320.295 896.328,320.295 897.5,321.5 Z"/></g>
<g><path style="opacity:1" fill="#222222" d="M 189.5,295.5 C 201.019,300.708 207.019,309.708 207.5,322.5C 220.85,322.833 234.183,322.499 247.5,321.5C 246.41,320.391 246.41,319.391 247.5,318.5C 250.167,319.833 252.833,321.167 255.5,322.5C 256.386,321.675 256.719,320.675 256.5,319.5C 257.833,321.833 257.833,324.167 256.5,326.5C 256.649,325.448 256.483,324.448 256,323.5C 253,325.167 250,326.833 247,328.5C 246.735,326.837 247.235,325.337 248.5,324C 234.837,323.5 221.171,323.333 207.5,323.5C 207.663,325.857 207.497,328.19 207,330.5C 206.901,332.653 206.067,334.319 204.5,335.5C 209.549,318.284 204.549,304.951 189.5,295.5 Z"/></g>
<g><path style="opacity:1" fill="#2f2f2f" d="M 382.5,297.5 C 379.871,300.631 377.038,303.631 374,306.5C 369.973,314.329 368.473,322.663 369.5,331.5C 368.388,329.401 367.721,327.067 367.5,324.5C 364.148,325.008 361.148,326.342 358.5,328.5C 357.653,326.939 357.986,325.439 359.5,324C 346.167,323.333 332.833,323.333 319.5,324C 318.368,334.934 313.368,343.6 304.5,350C 302.975,351.009 301.308,351.509 299.5,351.5C 303.717,349.123 307.551,346.123 311,342.5C 321.086,326.429 319.253,311.929 305.5,299C 293.042,291.513 280.708,291.679 268.5,299.5C 271.475,296.339 275.142,294.172 279.5,293C 298.297,289.645 311.13,296.812 318,314.5C 318.497,317.146 318.664,319.813 318.5,322.5C 332.171,322.667 345.837,322.5 359.5,322C 357.881,320.517 357.714,319.35 359,318.5C 361.405,319.953 363.905,321.287 366.5,322.5C 368.098,311.606 373.431,303.273 382.5,297.5 Z"/></g>
<g><path style="opacity:1" fill="#1d1d1d" d="M 592.5,322.5 C 592.938,322.435 593.272,322.601 593.5,323C 592.584,323.278 591.918,323.778 591.5,324.5C 588.577,325.295 585.91,326.628 583.5,328.5C 582.708,327.3 582.708,325.967 583.5,324.5C 558.905,323.829 533.571,323.496 507.5,323.5C 481.833,323.833 456.167,324.167 430.5,324.5C 430.624,325.107 430.957,325.44 431.5,325.5C 431.5,325.833 431.5,326.167 431.5,326.5C 431.5,327.167 431.167,327.5 430.5,327.5C 428.822,324.69 429.155,322.357 431.5,320.5C 456.658,321.833 482.158,322.5 508,322.5C 533.5,322.333 559,322.167 584.5,322C 582.881,320.517 582.714,319.35 584,318.5C 586.643,320.238 589.477,321.572 592.5,322.5 Z"/></g>
<g><path style="opacity:1" fill="#262626" d="M 644.5,300.5 C 646.017,300.511 647.184,301.177 648,302.5C 652.474,308.444 654.974,315.111 655.5,322.5C 677.169,322.667 698.836,322.5 720.5,322C 719.235,320.663 718.735,319.163 719,317.5C 721.826,319.829 724.992,321.496 728.5,322.5C 728.5,322.833 728.5,323.167 728.5,323.5C 725.366,324.901 722.366,326.568 719.5,328.5C 718.913,327.767 718.913,326.767 719.5,325.5C 720.043,325.44 720.376,325.107 720.5,324.5C 698.67,323.172 677.004,323.172 655.5,324.5C 655.59,327.152 654.924,329.485 653.5,331.5C 653.817,325.091 653.317,318.757 652,312.5C 650.04,308.066 647.54,304.066 644.5,300.5 Z"/></g>
<g><path style="opacity:1" fill="#202020" d="M 784.5,304.5 C 789.165,309.479 791.498,315.479 791.5,322.5C 816.169,322.667 840.836,322.5 865.5,322C 864.235,320.663 863.735,319.163 864,317.5C 866.826,319.829 869.992,321.496 873.5,322.5C 873.5,322.833 873.5,323.167 873.5,323.5C 870.366,324.901 867.366,326.568 864.5,328.5C 863.913,327.767 863.913,326.767 864.5,325.5C 865.043,325.44 865.376,325.107 865.5,324.5C 840.67,323.171 816.003,323.171 791.5,324.5C 791.5,325.167 791.5,325.833 791.5,326.5C 791.167,326.5 790.833,326.5 790.5,326.5C 790.642,318.521 788.642,311.188 784.5,304.5 Z"/></g>
<g><path style="opacity:1" fill="#1b1b1b" d="M 1037.5,322.5 C 1037.94,322.435 1038.27,322.601 1038.5,323C 1037.58,323.278 1036.92,323.778 1036.5,324.5C 1033.58,325.295 1030.91,326.628 1028.5,328.5C 1027.65,326.939 1027.99,325.439 1029.5,324C 998.502,323.5 967.502,323.333 936.5,323.5C 936.5,324.5 936.5,325.5 936.5,326.5C 936.167,326.5 935.833,326.5 935.5,326.5C 935.5,324.167 935.5,321.833 935.5,319.5C 935.833,319.5 936.167,319.5 936.5,319.5C 936.5,320.5 936.5,321.5 936.5,322.5C 967.502,322.667 998.502,322.5 1029.5,322C 1027.88,320.517 1027.71,319.35 1029,318.5C 1031.64,320.238 1034.48,321.572 1037.5,322.5 Z"/></g>
<g><path style="opacity:1" fill="#535353" d="M 1046.5,302.5 C 1046.83,302.5 1047.17,302.5 1047.5,302.5C 1040.34,310.794 1037.67,320.461 1039.5,331.5C 1038.65,329.112 1037.65,326.779 1036.5,324.5C 1036.92,323.778 1037.58,323.278 1038.5,323C 1038.27,322.601 1037.94,322.435 1037.5,322.5C 1037.82,314.54 1040.82,307.874 1046.5,302.5 Z"/></g>
<g><path style="opacity:1" fill="#9f9f9f" d="M 96.5,324.5 C 109.673,323.175 123.006,323.175 136.5,324.5C 136.376,325.107 136.043,325.44 135.5,325.5C 122.677,324.505 109.677,324.171 96.5,324.5 Z"/></g>
<g><path style="opacity:1" fill="#736b93" d="M 284.5,327.5 C 281.351,328.732 279.685,327.399 279.5,323.5C 279.833,322.833 280.167,322.167 280.5,321.5C 281.298,323.078 281.798,324.744 282,326.5C 282.671,327.252 283.504,327.586 284.5,327.5 Z"/></g>
<g><path style="opacity:1" fill="#9e9e9e" d="M 583.5,324.5 C 532.664,324.168 481.997,324.501 431.5,325.5C 430.957,325.44 430.624,325.107 430.5,324.5C 456.167,324.167 481.833,323.833 507.5,323.5C 533.571,323.496 558.905,323.829 583.5,324.5 Z"/></g>
<g><path style="opacity:1" fill="#736b93" d="M 616.5,327.5 C 613.351,328.732 611.685,327.399 611.5,323.5C 611.833,322.833 612.167,322.167 612.5,321.5C 613.298,323.078 613.798,324.744 614,326.5C 614.671,327.252 615.504,327.586 616.5,327.5 Z"/></g>
<g><path style="opacity:1" fill="#9e9f9e" d="M 655.5,324.5 C 677.004,323.172 698.67,323.172 720.5,324.5C 720.376,325.107 720.043,325.44 719.5,325.5C 698.34,324.503 677.007,324.169 655.5,324.5 Z"/></g>
<g><path style="opacity:1" fill="#736b93" d="M 753.5,327.5 C 750.351,328.732 748.685,327.399 748.5,323.5C 748.833,322.833 749.167,322.167 749.5,321.5C 750.298,323.078 750.798,324.744 751,326.5C 751.671,327.252 752.504,327.586 753.5,327.5 Z"/></g>
<g><path style="opacity:1" fill="#9e9f9e" d="M 791.5,324.5 C 816.003,323.171 840.67,323.171 865.5,324.5C 865.376,325.107 865.043,325.44 864.5,325.5C 840.339,324.502 816.006,324.169 791.5,324.5 Z"/></g>
<g><path style="opacity:1" fill="#736b93" d="M 1061.5,327.5 C 1058.35,328.732 1056.68,327.399 1056.5,323.5C 1056.83,322.833 1057.17,322.167 1057.5,321.5C 1058.3,323.078 1058.8,324.744 1059,326.5C 1059.67,327.252 1060.5,327.586 1061.5,327.5 Z"/></g>
<g><path style="opacity:1" fill="#290a2f" d="M 1196.5,317.5 C 1197.21,319.893 1197.88,322.393 1198.5,325C 1197.81,326.067 1197.31,327.234 1197,328.5C 1196.52,327.552 1196.35,326.552 1196.5,325.5C 1195.02,325.762 1193.69,325.429 1192.5,324.5C 1193.56,324.094 1194.89,324.094 1196.5,324.5C 1196.5,322.167 1196.5,319.833 1196.5,317.5 Z"/></g>
<g><path style="opacity:1" fill="#480f48" d="M 62.5,320.5 C 63.8551,325.219 63.8551,327.886 62.5,328.5C 58.5,328.167 58.5,327.833 62.5,327.5C 62.5,325.167 62.5,322.833 62.5,320.5 Z"/></g>
<g><path style="opacity:1" fill="#61230c" d="M 173.5,320.5 C 174.855,325.219 174.855,327.886 173.5,328.5C 169.5,328.167 169.5,327.833 173.5,327.5C 173.15,324.959 173.15,322.626 173.5,320.5 Z"/></g>
<g><path style="opacity:1" fill="#210921" d="M 289.5,326.5 C 290.952,327.302 292.618,327.802 294.5,328C 292.19,328.497 289.857,328.663 287.5,328.5C 287.833,327.5 288.5,326.833 289.5,326.5 Z"/></g>
<g><path style="opacity:1" fill="#291d25" d="M 909.5,326.5 C 911.801,327.06 914.134,327.56 916.5,328C 915.333,328.167 914.167,328.333 913,328.5C 911.319,328.392 910.152,327.725 909.5,326.5 Z"/></g>
<g><path style="opacity:1" fill="#61230c" d="M 1180.5,320.5 C 1181.86,325.219 1181.86,327.886 1180.5,328.5C 1176.5,328.167 1176.5,327.833 1180.5,327.5C 1180.15,324.959 1180.15,322.626 1180.5,320.5 Z"/></g>
<g><path style="opacity:1" fill="#292929" d="M 8.5,306.5 C 7.34097,317.326 7.17431,328.326 8,339.5C 15.972,334.101 24.1387,329.101 32.5,324.5C 24.4487,330.696 15.9487,336.363 7,341.5C 6.33333,329.167 6.33333,316.833 7,304.5C 7.71719,305.044 8.21719,305.711 8.5,306.5 Z"/></g>
<g><path style="opacity:1" fill="#484848" d="M 1167.5,311.5 C 1165.6,317.353 1165.1,323.353 1166,329.5C 1171.95,343.721 1182.45,348.721 1197.5,344.5C 1182.98,350.177 1172.15,345.844 1165,331.5C 1163.61,326.905 1163.27,322.239 1164,317.5C 1164.72,315.121 1165.88,313.121 1167.5,311.5 Z"/></g>
<g><path style="opacity:1" fill="#404040" d="M 145.5,328.5 C 145.833,328.5 146.167,328.5 146.5,328.5C 149.678,339.651 156.678,347.485 167.5,352C 184,355.458 196.333,349.958 204.5,335.5C 200.673,345.613 193.339,351.78 182.5,354C 162.912,355.882 150.579,347.382 145.5,328.5 Z"/></g>
<g><path style="opacity:1" fill="#434343" d="M 874.5,246.5 C 875.401,247.29 876.068,248.29 876.5,249.5C 845.274,266.451 814.274,283.951 783.5,302C 784.252,302.671 784.586,303.504 784.5,304.5C 781.997,302.167 779.331,300.001 776.5,298C 758.214,289.36 743.714,293.527 733,310.5C 727.029,327.375 731.529,340.542 746.5,350C 769.36,357.074 784.027,349.241 790.5,326.5C 790.833,326.5 791.167,326.5 791.5,326.5C 787.991,344.008 777.325,353.342 759.5,354.5C 740.779,352.446 730.446,342.113 728.5,323.5C 728.5,323.167 728.5,322.833 728.5,322.5C 729.36,311.104 734.694,302.27 744.5,296C 758.072,290.159 770.739,291.659 782.5,300.5C 811.371,283.8 840.371,267.3 869.5,251C 871.692,249.933 873.358,248.433 874.5,246.5 Z"/></g>
<g><path style="opacity:1" fill="#3c3c3c" d="M 268.5,299.5 C 259.306,308.259 256.139,318.926 259,331.5C 266.693,349.763 280.193,356.43 299.5,351.5C 280.596,357.809 266.763,351.809 258,333.5C 257.023,331.26 256.523,328.927 256.5,326.5C 257.833,324.167 257.833,321.833 256.5,319.5C 257.717,310.995 261.717,304.328 268.5,299.5 Z"/></g>
<g><path style="opacity:1" fill="#343434" d="M 1168.5,299.5 C 1159.31,308.259 1156.14,318.926 1159,331.5C 1166.69,349.763 1180.19,356.43 1199.5,351.5C 1180.6,357.809 1166.76,351.809 1158,333.5C 1156.96,330.247 1156.3,326.914 1156,323.5C 1153,325.167 1150,326.833 1147,328.5C 1146.74,326.837 1147.24,325.337 1148.5,324C 1132.5,323.5 1116.5,323.333 1100.5,323.5C 1100.71,326.495 1100.04,329.162 1098.5,331.5C 1098.82,325.091 1098.32,318.757 1097,312.5C 1095.04,308.066 1092.54,304.066 1089.5,300.5C 1092.09,301.254 1093.92,302.921 1095,305.5C 1098.53,310.633 1100.37,316.3 1100.5,322.5C 1116.18,322.833 1131.85,322.499 1147.5,321.5C 1146.41,320.391 1146.41,319.391 1147.5,318.5C 1150.17,319.833 1152.83,321.167 1155.5,322.5C 1156.69,315.093 1159.52,308.426 1164,302.5C 1165.13,300.859 1166.63,299.859 1168.5,299.5 Z"/></g>
<g><path style="opacity:1" fill="#120420" d="M 1129.5,311.5 C 1131.75,312.21 1134.08,312.71 1136.5,313C 1135.33,313.167 1134.17,313.333 1133,313.5C 1131.32,313.392 1130.15,312.725 1129.5,311.5 Z"/></g>
<g><path style="opacity:1" fill="#26233f" d="M 1109.5,308.5 C 1111.41,309.185 1113.41,309.685 1115.5,310C 1116.52,311.049 1116.68,312.216 1116,313.5C 1115.63,312.584 1115.13,311.75 1114.5,311C 1112.26,310.95 1110.59,310.117 1109.5,308.5 Z"/></g>
<g><path style="opacity:1" fill="#6285b4" d="M 1134.5,305.5 C 1134.83,305.5 1135.17,305.5 1135.5,305.5C 1134.97,307.544 1133.8,309.211 1132,310.5C 1132.06,308.565 1132.89,306.898 1134.5,305.5 Z"/></g>
<g><path style="opacity:1" fill="#1d0500" d="M 1135.5,305.5 C 1135.17,305.5 1134.83,305.5 1134.5,305.5C 1133.05,304.698 1131.38,304.198 1129.5,304C 1130.5,303.833 1131.5,303.667 1132.5,303.5C 1134.03,303.64 1135.03,304.307 1135.5,305.5 Z"/></g>
<g><path style="opacity:1" fill="#393939" d="M 369.5,331.5 C 372.832,340.337 378.832,346.837 387.5,351C 406.891,356.303 420.557,349.803 428.5,331.5C 424.178,346.351 414.178,354.017 398.5,354.5C 383.227,353.718 373.56,346.051 369.5,331.5 Z"/></g>
<g><path style="opacity:1" fill="#393939" d="M 594.5,331.5 C 597.832,340.337 603.832,346.837 612.5,351C 631.891,356.303 645.557,349.803 653.5,331.5C 649.178,346.351 639.178,354.017 623.5,354.5C 608.227,353.718 598.56,346.051 594.5,331.5 Z"/></g>
<g><path style="opacity:1" fill="#393939" d="M 1039.5,331.5 C 1042.83,340.337 1048.83,346.837 1057.5,351C 1076.89,356.303 1090.56,349.803 1098.5,331.5C 1094.18,346.351 1084.18,354.017 1068.5,354.5C 1053.23,353.718 1043.56,346.051 1039.5,331.5 Z"/></g>
<g><path style="opacity:1" fill="#535353" d="M 431.5,326.5 C 469.833,421.167 508.167,515.833 546.5,610.5C 546.158,611.338 545.492,611.672 544.5,611.5C 507.075,516.644 469.075,421.977 430.5,327.5C 431.167,327.5 431.5,327.167 431.5,326.5 Z"/></g>
<g><path style="opacity:1" fill="#383838" d="M 719.5,402.5 C 722.05,397.457 726.05,393.957 731.5,392C 732.5,391.333 733.5,391.333 734.5,392C 728.771,394.525 723.771,398.025 719.5,402.5 Z"/></g>
<g><path style="opacity:1" fill="#0d76b3" d="M 873.5,412.5 C 874.641,415.64 874.808,418.973 874,422.5C 873.782,419.574 873.282,416.74 872.5,414C 873.056,413.617 873.389,413.117 873.5,412.5 Z"/></g>
<g><path style="opacity:1" fill="#afadbc" d="M 893.5,419.5 C 894.526,415.27 894.526,414.603 893.5,417.5C 892.167,417.5 890.833,417.5 889.5,417.5C 888.079,413.896 889.413,412.396 893.5,413C 895.984,415.657 896.15,418.49 894,421.5C 893.536,420.906 893.369,420.239 893.5,419.5 Z"/></g>
<g><path style="opacity:1" fill="#136ea6" d="M 736.5,425.5 C 737.752,423.661 737.752,421.828 736.5,420C 737,419.5 737.5,419 738,418.5C 738.667,422.167 738.667,425.833 738,429.5C 737.79,427.942 737.29,426.609 736.5,425.5 Z"/></g>
<g><path style="opacity:1" fill="#894b14" d="M 743.5,416.5 C 744.641,419.64 744.808,422.973 744,426.5C 743.667,423.833 743.333,421.167 743,418.5C 742.346,419.696 741.846,419.696 741.5,418.5C 742.243,417.818 742.909,417.151 743.5,416.5 Z"/></g>
<g><path style="opacity:1" fill="#7c4919" d="M 893.5,419.5 C 892.167,418.833 890.833,418.167 889.5,417.5C 890.833,417.5 892.167,417.5 893.5,417.5C 894.526,414.603 894.526,415.27 893.5,419.5 Z"/></g>
<g><path style="opacity:1" fill="#736b93" d="M 736.5,425.5 C 733.351,426.732 731.685,425.399 731.5,421.5C 731.833,420.833 732.167,420.167 732.5,419.5C 733.298,421.078 733.798,422.744 734,424.5C 734.671,425.252 735.504,425.586 736.5,425.5 Z"/></g>
<g><path style="opacity:1" fill="#aea2a4" d="M 752.5,416.5 C 753.693,418.809 754.693,421.142 755.5,423.5C 753.218,427.476 750.885,427.476 748.5,423.5C 749.167,422.167 750.167,421.167 751.5,420.5C 752.429,419.311 752.762,417.978 752.5,416.5 Z"/></g>
<g><path style="opacity:1" fill="#510c0e" d="M 176.5,440.5 C 174.958,439.699 173.292,439.366 171.5,439.5C 171.66,441.199 171.494,442.866 171,444.5C 170.501,440.848 170.335,437.182 170.5,433.5C 172.857,433.337 175.19,433.503 177.5,434C 175.527,434.495 173.527,434.662 171.5,434.5C 171.5,435.833 171.5,437.167 171.5,438.5C 173.527,438.338 175.527,438.505 177.5,439C 176.944,439.383 176.611,439.883 176.5,440.5 Z"/></g>
<g><path style="opacity:1" fill="#4d4d4d" d="M 1007.5,440.5 C 1007.5,440.833 1007.5,441.167 1007.5,441.5C 930.15,435.054 852.817,428.387 775.5,421.5C 774.21,437.434 765.877,447.434 750.5,451.5C 750.5,450.833 750.167,450.5 749.5,450.5C 767.867,445.14 775.701,432.806 773,413.5C 766.686,395.919 754.186,388.419 735.5,391C 758.639,387.412 771.972,397.245 775.5,420.5C 852.941,426.51 930.274,433.177 1007.5,440.5 Z"/></g>
<g><path style="opacity:1" fill="#f6f6f6" d="M 1199.5,491.5 C 1180.19,496.43 1166.69,489.763 1159,471.5C 1156.14,458.926 1159.31,448.259 1168.5,439.5C 1180.71,431.679 1193.04,431.513 1205.5,439C 1219.25,451.948 1221.09,466.448 1211,482.5C 1207.55,486.123 1203.72,489.123 1199.5,491.5 Z"/></g>
<g><path style="opacity:1" fill="#17325e" d="M 1116.5,433.5 C 1118.53,433.338 1120.53,433.505 1122.5,434C 1120.87,434.494 1119.2,434.66 1117.5,434.5C 1117.5,437.167 1117.5,439.833 1117.5,442.5C 1122.5,443.003 1122.17,443.336 1116.5,443.5C 1116.5,440.167 1116.5,436.833 1116.5,433.5 Z"/></g>
<g><path style="opacity:1" fill="#2e72a8" d="M 202.5,445.5 C 203.36,443.126 203.36,440.459 202.5,437.5C 203.117,437.389 203.617,437.056 204,436.5C 204.824,439.882 204.657,443.216 203.5,446.5C 202.893,446.376 202.56,446.043 202.5,445.5 Z"/></g>
<g><path style="opacity:1" fill="#163469" d="M 185.5,443.5 C 186.914,441.402 186.248,440.402 183.5,440.5C 184.848,439.814 186.015,438.814 187,437.5C 187.667,439.833 187.667,442.167 187,444.5C 186.617,443.944 186.117,443.611 185.5,443.5 Z"/></g>
<g><path style="opacity:1" fill="#cdbaa4" d="M 202.5,437.5 C 203.36,440.459 203.36,443.126 202.5,445.5C 201.5,444.833 200.5,444.167 199.5,443.5C 199.5,441.5 199.5,439.5 199.5,437.5C 200.5,436.167 201.5,436.167 202.5,437.5 Z"/></g>
<g><path style="opacity:1" fill="#424242" d="M 719.5,402.5 C 708.787,425.037 714.787,441.037 737.5,450.5C 737.5,450.833 737.5,451.167 737.5,451.5C 719.364,445.921 711.197,433.587 713,414.5C 713.896,409.701 716.063,405.701 719.5,402.5 Z"/></g>
<g><path style="opacity:1" fill="#7a85c3" d="M 199.5,437.5 C 199.5,439.5 199.5,441.5 199.5,443.5C 196.833,441.5 196.833,439.5 199.5,437.5 Z"/></g>
<g><path style="opacity:1" fill="#3d5f82" d="M 206.5,437.5 C 207.302,438.952 207.802,440.618 208,442.5C 208.75,443.126 209.584,443.626 210.5,444C 209.216,444.684 208.049,444.517 207,443.5C 206.505,441.527 206.338,439.527 206.5,437.5 Z"/></g>
<g><path style="opacity:1" fill="#210e1f" d="M 1100.5,437.5 C 1101.85,438.527 1102.35,439.86 1102,441.5C 1100.27,440.751 1098.43,440.251 1096.5,440C 1098.44,439.878 1099.77,439.045 1100.5,437.5 Z"/></g>
<g><path style="opacity:1" fill="#f3e0ca" d="M 183.5,440.5 C 186.248,440.402 186.914,441.402 185.5,443.5C 182.752,443.598 182.086,442.598 183.5,440.5 Z"/></g>
<g><path style="opacity:1" fill="#f9f8f9" d="M 1197.5,484.5 C 1182.45,488.721 1171.95,483.721 1166,469.5C 1165.1,463.353 1165.6,457.353 1167.5,451.5C 1175.72,441.028 1186.05,438.195 1198.5,443C 1211.78,452.733 1213.95,464.567 1205,478.5C 1202.52,480.639 1200.02,482.639 1197.5,484.5 Z"/></g>
<g><path style="opacity:1" fill="#371b2f" d="M 176.5,440.5 C 178.085,441.002 178.585,442.002 178,443.5C 176.961,442.756 176.461,441.756 176.5,440.5 Z"/></g>
<g><path style="opacity:1" fill="#362f48" d="M 183.5,440.5 C 182.086,442.598 182.752,443.598 185.5,443.5C 184.432,444.434 183.099,444.768 181.5,444.5C 181.157,442.517 181.824,441.183 183.5,440.5 Z"/></g>
<g><path style="opacity:1" fill="#363636" d="M 1197.5,484.5 C 1200.02,482.639 1202.52,480.639 1205,478.5C 1213.95,464.567 1211.78,452.733 1198.5,443C 1186.05,438.195 1175.72,441.028 1167.5,451.5C 1173.56,441.142 1182.56,437.309 1194.5,440C 1208.06,445.248 1213.56,455.081 1211,469.5C 1209.22,477.136 1204.72,482.136 1197.5,484.5 Z"/></g>
<g><path style="opacity:1" fill="#2e2e2e" d="M 1168.5,439.5 C 1159.31,448.259 1156.14,458.926 1159,471.5C 1166.69,489.763 1180.19,496.43 1199.5,491.5C 1180.6,497.809 1166.76,491.809 1158,473.5C 1156.96,470.247 1156.3,466.914 1156,463.5C 1153,465.167 1150,466.833 1147,468.5C 1146.74,466.837 1147.24,465.337 1148.5,464C 1122.84,463.5 1097.17,463.333 1071.5,463.5C 1069.37,482.63 1058.7,492.963 1039.5,494.5C 1031.68,494.285 1024.85,491.618 1019,486.5C 1017.09,489.215 1015.76,492.215 1015,495.5C 1013.96,494.756 1013.46,493.756 1013.5,492.5C 1013.17,491.5 1012.5,490.833 1011.5,490.5C 1010.08,490.291 1008.74,489.791 1007.5,489C 1010.79,487.672 1014.12,486.339 1017.5,485C 1012.46,479.089 1009.46,472.255 1008.5,464.5C 1005.57,465.93 1003.07,467.93 1001,470.5C 1000.51,469.207 1000.34,467.873 1000.5,466.5C 1001.51,466.062 1001.51,465.396 1000.5,464.5C 999.859,463.518 999.193,462.518 998.5,461.5C 998.833,461.167 999.167,460.833 999.5,460.5C 1002.45,461.423 1005.45,462.089 1008.5,462.5C 1008.96,455.607 1011.3,449.441 1015.5,444C 1012.96,443.383 1010.63,443.883 1008.5,445.5C 1007.89,444.413 1008.23,443.246 1009.5,442C 1008.91,441.536 1008.24,441.369 1007.5,441.5C 1007.5,441.167 1007.5,440.833 1007.5,440.5C 1009.69,439.464 1009.69,437.964 1007.5,436C 1010.84,437.166 1014.18,438.666 1017.5,440.5C 1027.6,432.491 1038.94,430.324 1051.5,434C 1063.84,439.507 1070.51,449.007 1071.5,462.5C 1096.84,462.833 1122.18,462.5 1147.5,461.5C 1146.41,460.391 1146.41,459.391 1147.5,458.5C 1150.17,459.833 1152.83,461.167 1155.5,462.5C 1156.69,455.093 1159.52,448.426 1164,442.5C 1165.13,440.859 1166.63,439.859 1168.5,439.5 Z"/></g>
<g><path style="opacity:1" fill="#fcfcfb" d="M 1034.5,433.5 C 1057.52,432.693 1069.35,443.693 1070,466.5C 1065.6,486.79 1053.1,495.29 1032.5,492C 1018.42,487.54 1011.09,477.873 1010.5,463C 1011.76,447.583 1019.76,437.75 1034.5,433.5 Z"/></g>
<g><path style="opacity:1" fill="#3c3c3c" d="M 1199.5,491.5 C 1203.72,489.123 1207.55,486.123 1211,482.5C 1221.09,466.448 1219.25,451.948 1205.5,439C 1193.04,431.513 1180.71,431.679 1168.5,439.5C 1171.48,436.339 1175.14,434.172 1179.5,433C 1198.3,429.645 1211.13,436.812 1218,454.5C 1220.92,467.75 1217.42,478.916 1207.5,488C 1205.18,489.993 1202.52,491.159 1199.5,491.5 Z"/></g>
<g><path style="opacity:1" fill="#500f01" d="M 184.5,451.5 C 186.857,451.337 189.19,451.503 191.5,452C 189.527,452.495 187.527,452.662 185.5,452.5C 185.5,453.833 185.5,455.167 185.5,456.5C 192.167,456.833 192.167,457.167 185.5,457.5C 185.66,459.199 185.494,460.866 185,462.5C 184.501,458.848 184.335,455.182 184.5,451.5 Z"/></g>
<g><path style="opacity:1" fill="#761314" d="M 220.5,458.5 C 219.292,457.766 217.959,457.433 216.5,457.5C 215.443,461.523 215.276,459.523 216,451.5C 216.333,453.167 216.667,454.833 217,456.5C 219.149,455.16 220.316,455.827 220.5,458.5 Z"/></g>
<g><path style="opacity:1" fill="#a6a0a9" d="M 164.5,451.5 C 169.766,451.541 171.599,454.208 170,459.5C 168.913,461.932 168.413,461.598 168.5,458.5C 163.812,458.108 162.478,455.775 164.5,451.5 Z"/></g>
<g><path style="opacity:1" fill="#151515" d="M 737.5,451.5 C 737.5,451.167 737.5,450.833 737.5,450.5C 741.5,450.5 745.5,450.5 749.5,450.5C 750.167,450.5 750.5,450.833 750.5,451.5C 748.396,451.201 746.396,451.534 744.5,452.5C 746.08,455.723 746.914,459.056 747,462.5C 746,461.833 745,461.167 744,460.5C 743.601,460.728 743.435,461.062 743.5,461.5C 742.039,460.314 740.705,460.314 739.5,461.5C 738.761,461.631 738.094,461.464 737.5,461C 739.377,458.079 741.377,455.246 743.5,452.5C 741.604,451.534 739.604,451.201 737.5,451.5 Z"/></g>
<g><path style="opacity:1" fill="#2e71a5" d="M 1040.5,457.5 C 1041.64,460.976 1041.81,464.642 1041,468.5C 1041,465.313 1040.17,462.48 1038.5,460C 1039.38,459.292 1040.05,458.458 1040.5,457.5 Z"/></g>
<g><path style="opacity:1" fill="#a6909b" d="M 1046.5,457.5 C 1047.93,457.421 1049.26,457.754 1050.5,458.5C 1051.83,461.167 1051.83,463.833 1050.5,466.5C 1049.12,465.024 1047.45,464.024 1045.5,463.5C 1044.23,461.194 1044.56,459.194 1046.5,457.5 Z"/></g>
<g><path style="opacity:1" fill="#c6bfc4" d="M 1185.5,466.5 C 1184.5,466.833 1183.83,467.5 1183.5,468.5C 1182.83,469.5 1182.17,470.5 1181.5,471.5C 1181.5,467.833 1181.5,464.167 1181.5,460.5C 1183.77,458.017 1186.44,457.35 1189.5,458.5C 1190.86,462.447 1189.53,465.114 1185.5,466.5 Z"/></g>
<g><path style="opacity:1" fill="#502c42" d="M 220.5,458.5 C 221.962,459.458 223.295,460.624 224.5,462C 222.159,462.168 220.826,461.001 220.5,458.5 Z"/></g>
<g><path style="opacity:1" fill="#0a4e97" d="M 1033.5,471.5 C 1033.75,468.061 1033.41,464.728 1032.5,461.5C 1033.12,461.389 1033.62,461.056 1034,460.5C 1034.81,464.358 1034.64,468.024 1033.5,471.5 Z"/></g>
<g><path style="opacity:1" fill="#a4846a" d="M 1193.5,457.5 C 1194.83,457.5 1196.17,457.5 1197.5,457.5C 1198.83,461.167 1198.83,464.833 1197.5,468.5C 1196.45,468.649 1195.45,468.483 1194.5,468C 1195.7,466.647 1196.37,464.981 1196.5,463C 1196.17,461.5 1195.83,460 1195.5,458.5C 1194.06,459.981 1193.39,459.648 1193.5,457.5 Z"/></g>
<g><path style="opacity:1" fill="#b89fa4" d="M 916.5,460.5 C 917.822,460.33 918.989,460.663 920,461.5C 920.667,464.167 920.667,466.833 920,469.5C 916.229,470.749 914.396,469.249 914.5,465C 914.759,463.213 915.425,461.713 916.5,460.5 Z"/></g>
<g><path style="opacity:1" fill="#afadbc" d="M 938.5,467.5 C 939.526,463.27 939.526,462.603 938.5,465.5C 937.167,465.5 935.833,465.5 934.5,465.5C 933.079,461.896 934.413,460.396 938.5,461C 940.984,463.657 941.15,466.49 939,469.5C 938.536,468.906 938.369,468.239 938.5,467.5 Z"/></g>
<g><path style="opacity:1" fill="#bfa89e" d="M 1032.5,461.5 C 1033.41,464.728 1033.75,468.061 1033.5,471.5C 1032.6,470.791 1032.26,469.791 1032.5,468.5C 1027.84,468.189 1026.51,465.856 1028.5,461.5C 1029.99,460.295 1031.33,460.295 1032.5,461.5 Z"/></g>
<g><path style="opacity:1" fill="#7c4919" d="M 938.5,467.5 C 937.167,466.833 935.833,466.167 934.5,465.5C 935.833,465.5 937.167,465.5 938.5,465.5C 939.526,462.603 939.526,463.27 938.5,467.5 Z"/></g>
<g><path style="opacity:1" fill="#61230c" d="M 1181.5,460.5 C 1181.5,464.167 1181.5,467.833 1181.5,471.5C 1180.6,470.791 1180.26,469.791 1180.5,468.5C 1176.5,468.167 1176.5,467.833 1180.5,467.5C 1180.74,465.533 1180.41,463.699 1179.5,462C 1180.04,461.283 1180.71,460.783 1181.5,460.5 Z"/></g>
<g><path style="opacity:1" fill="#210921" d="M 1185.5,466.5 C 1186.95,467.302 1188.62,467.802 1190.5,468C 1188.19,468.497 1185.86,468.663 1183.5,468.5C 1183.83,467.5 1184.5,466.833 1185.5,466.5 Z"/></g>
<g><path style="opacity:1" fill="#a29296" d="M 162.5,469.5 C 168.612,470.987 169.945,474.487 166.5,480C 165.167,480.667 163.833,480.667 162.5,480C 163.448,479.517 164.448,479.351 165.5,479.5C 165.5,478.5 165.5,477.5 165.5,476.5C 164.167,476.5 162.833,476.5 161.5,476.5C 161.448,474.097 161.781,471.764 162.5,469.5 Z"/></g>
<g><path style="opacity:1" fill="#5a87c3" d="M 189.5,471.5 C 190.924,473.515 191.59,475.848 191.5,478.5C 190.076,476.485 189.41,474.152 189.5,471.5 Z"/></g>
<g><path style="opacity:1" fill="#7a81ac" d="M 182.5,472.5 C 184.035,473.844 185.368,475.511 186.5,477.5C 186,478.5 185.5,479.5 185,480.5C 183.856,477.92 183.022,475.253 182.5,472.5 Z"/></g>
<g><path style="opacity:1" fill="#2c547b" d="M 201.5,470.5 C 202.29,471.609 202.79,472.942 203,474.5C 203.75,475.126 204.584,475.626 205.5,476C 204.216,476.684 203.049,476.517 202,475.5C 201.506,473.866 201.34,472.199 201.5,470.5 Z"/></g>
<g><path style="opacity:1" fill="#2e190f" d="M 217.5,469.5 C 220.187,469.336 222.854,469.503 225.5,470C 223.19,470.497 220.857,470.663 218.5,470.5C 218.5,471.833 218.5,473.167 218.5,474.5C 226.5,474.833 226.5,475.167 218.5,475.5C 218.5,476.833 218.5,478.167 218.5,479.5C 220.857,479.337 223.19,479.503 225.5,480C 222.854,480.497 220.187,480.664 217.5,480.5C 217.5,476.833 217.5,473.167 217.5,469.5 Z"/></g>
<g><path style="opacity:1" fill="#484848" d="M 1167.5,451.5 C 1165.6,457.353 1165.1,463.353 1166,469.5C 1171.95,483.721 1182.45,488.721 1197.5,484.5C 1182.98,490.177 1172.15,485.844 1165,471.5C 1163.61,466.905 1163.27,462.239 1164,457.5C 1164.72,455.121 1165.88,453.121 1167.5,451.5 Z"/></g>
<g><path style="opacity:1" fill="#bd8f66" d="M 189.5,471.5 C 189.41,474.152 190.076,476.485 191.5,478.5C 191.631,479.239 191.464,479.906 191,480.5C 188.8,476.981 187.966,473.315 188.5,469.5C 189.298,469.957 189.631,470.624 189.5,471.5 Z"/></g>
<g><path style="opacity:1" fill="#a88b86" d="M 210.5,469.5 C 213.797,469.329 214.131,469.995 211.5,471.5C 210.754,472.736 210.421,474.07 210.5,475.5C 211.822,475.33 212.989,475.663 214,476.5C 214.333,474.833 214.667,473.167 215,471.5C 215.777,474.429 215.61,477.263 214.5,480C 210.294,480.835 208.294,479.002 208.5,474.5C 208.986,472.696 209.653,471.029 210.5,469.5 Z"/></g>
<g><path style="opacity:1" fill="#fbfbfb" d="M 849.5,480.5 C 864.549,489.951 869.549,503.284 864.5,520.5C 856.333,534.958 844,540.458 827.5,537C 810.267,529.702 803.767,516.869 808,498.5C 811.25,490.757 816.417,484.757 823.5,480.5C 832.157,477.892 840.824,477.892 849.5,480.5 Z"/></g>
<g><path style="opacity:1" fill="#3a3a3a" d="M 849.5,480.5 C 840.824,477.892 832.157,477.892 823.5,480.5C 824.6,479.442 825.934,478.608 827.5,478C 833.167,477.333 838.833,477.333 844.5,478C 846.491,478.374 848.158,479.207 849.5,480.5 Z"/></g>
<g><path style="opacity:1" fill="#6478b5" d="M 513.5,478.5 C 514.532,481.134 514.199,483.801 512.5,486.5C 512.167,486.167 511.833,485.833 511.5,485.5C 512.577,483.271 513.244,480.937 513.5,478.5 Z"/></g>
<g><path style="opacity:1" fill="#7472a6" d="M 503.5,478.5 C 504.927,480.148 505.76,482.148 506,484.5C 506.333,483.5 506.667,482.5 507,481.5C 507.774,483.403 507.44,485.07 506,486.5C 504.554,484.059 503.721,481.392 503.5,478.5 Z"/></g>
<g><path style="opacity:1" fill="#484848" d="M 1000.5,464.5 C 1001.51,465.396 1001.51,466.062 1000.5,466.5C 955.458,475.575 910.458,484.909 865.5,494.5C 867.392,501.373 867.892,508.373 867,515.5C 866.901,517.653 866.067,519.319 864.5,520.5C 869.549,503.284 864.549,489.951 849.5,480.5C 851.593,481.045 853.593,481.878 855.5,483C 859.059,486.222 862.226,489.722 865,493.5C 910.158,483.723 955.325,474.057 1000.5,464.5 Z"/></g>
<g><path style="opacity:1" fill="#cbbbb7" d="M 834.5,511.5 C 833.167,511.5 832.5,512.167 832.5,513.5C 831.362,510.696 831.195,507.696 832,504.5C 837.347,501.246 839.514,502.579 838.5,508.5C 837.148,509.524 835.815,510.524 834.5,511.5 Z"/></g>
<g><path style="opacity:1" fill="#4c104b" d="M 844.5,502.5 C 845.643,505.976 845.81,509.642 845,513.5C 844.999,510.313 844.166,507.48 842.5,505C 843.381,504.292 844.047,503.458 844.5,502.5 Z"/></g>
<g><path style="opacity:1" fill="#480f48" d="M 829.5,505.5 C 830.855,510.219 830.855,512.886 829.5,513.5C 825.5,513.167 825.5,512.833 829.5,512.5C 829.5,510.167 829.5,507.833 829.5,505.5 Z"/></g>
<g><path style="opacity:1" fill="#291d25" d="M 834.5,511.5 C 835.952,512.302 837.618,512.802 839.5,513C 837.19,513.497 834.857,513.663 832.5,513.5C 832.5,512.167 833.167,511.5 834.5,511.5 Z"/></g>
<g><path style="opacity:1" fill="#52ff4e" d="M 945.5,512.5 C 946.641,515.64 946.808,518.973 946,522.5C 945.782,519.574 945.282,516.74 944.5,514C 945.056,513.617 945.389,513.117 945.5,512.5 Z"/></g>
<g><path style="opacity:1" fill="#635468" d="M 962.5,512.5 C 966.056,512.275 966.39,513.108 963.5,515C 963.905,515.945 964.572,516.612 965.5,517C 961.707,517.487 960.707,515.987 962.5,512.5 Z"/></g>
<g><path style="opacity:1" fill="#3d3d3d" d="M 823.5,480.5 C 816.417,484.757 811.25,490.757 808,498.5C 803.767,516.869 810.267,529.702 827.5,537C 844,540.458 856.333,534.958 864.5,520.5C 860.673,530.613 853.339,536.78 842.5,539C 825.9,541.048 814.067,534.548 807,519.5C 802.64,505.589 805.807,493.755 816.5,484C 818.577,482.295 820.91,481.128 823.5,480.5 Z"/></g>
<g><path style="opacity:1" fill="#101010" d="M 803.5,534.5 C 803.027,533.094 802.027,532.427 800.5,532.5C 798.255,532.459 797.588,531.625 798.5,530C 801.512,529.22 804.345,528.053 807,526.5C 806.885,530.186 806.218,533.853 805,537.5C 803.961,536.756 803.461,535.756 803.5,534.5 Z"/></g>
<g><path style="opacity:1" fill="#791402" d="M 756.5,536.5 C 757.641,539.64 757.808,542.973 757,546.5C 756.782,543.574 756.282,540.74 755.5,538C 756.056,537.617 756.389,537.117 756.5,536.5 Z"/></g>
<g><path style="opacity:1" fill="#baa8a5" d="M 773.5,536.5 C 777.161,536.35 778.161,537.85 776.5,541C 778.658,542.312 778.991,543.978 777.5,546C 776.552,546.483 775.552,546.649 774.5,546.5C 774.752,543.756 774.085,541.256 772.5,539C 772.743,538.098 773.077,537.265 773.5,536.5 Z"/></g>
<g><path style="opacity:1" fill="#464646" d="M 739.5,461.5 C 740.705,460.314 742.039,460.314 743.5,461.5C 738.173,503.794 733.173,546.128 728.5,588.5C 732.647,588.126 736.314,589.126 739.5,591.5C 735.546,590.628 731.546,589.962 727.5,589.5C 723.133,590.009 718.799,590.676 714.5,591.5C 718.018,589.034 722.018,588.034 726.5,588.5C 731.279,547.151 736.279,505.818 741.5,464.5C 741.36,462.97 740.693,461.97 739.5,461.5 Z"/></g>
<g><path style="opacity:1" fill="#545454" d="M 800.5,532.5 C 802.027,532.427 803.027,533.094 803.5,534.5C 801.983,534.511 800.816,535.177 800,536.5C 784.045,556.79 767.712,576.79 751,596.5C 750.333,597.5 750.333,598.5 751,599.5C 755.731,604.961 758.231,611.294 758.5,618.5C 787.167,618.5 815.833,618.5 844.5,618.5C 844.5,619.167 844.5,619.833 844.5,620.5C 815.833,620.5 787.167,620.5 758.5,620.5C 757.953,629.595 754.286,636.928 747.5,642.5C 757.622,630.2 759.122,616.867 752,602.5C 748.233,598.224 744.066,594.557 739.5,591.5C 743.062,592.787 746.396,594.287 749.5,596C 765.667,576.5 781.833,557 798,537.5C 799.094,535.922 799.928,534.255 800.5,532.5 Z"/></g>
<g><path style="opacity:1" fill="#595959" d="M 1011.5,490.5 C 1012.5,490.833 1013.17,491.5 1013.5,492.5C 1012.76,492.369 1012.09,492.536 1011.5,493C 976.605,527.728 941.938,562.562 907.5,597.5C 907.5,597.167 907.5,596.833 907.5,596.5C 941.804,560.862 976.471,525.528 1011.5,490.5 Z"/></g>
<g><path style="opacity:1" fill="#fbfbfa" d="M 604.5,637.5 C 589.236,652.611 573.402,653.278 557,639.5C 545.318,622.143 547.485,606.809 563.5,593.5C 583.32,585.271 598.153,590.605 608,609.5C 610.682,619.328 609.515,628.662 604.5,637.5 Z"/></g>
<g><path style="opacity:1" fill="#fbfbfb" d="M 739.5,591.5 C 744.066,594.557 748.233,598.224 752,602.5C 759.122,616.867 757.622,630.2 747.5,642.5C 744.489,643.669 741.822,645.336 739.5,647.5C 723.42,652.609 710.587,648.275 701,634.5C 694.118,619.008 696.951,605.674 709.5,594.5C 711.674,594.25 713.341,593.25 714.5,591.5C 718.799,590.676 723.133,590.009 727.5,589.5C 731.546,589.962 735.546,590.628 739.5,591.5 Z"/></g>
<g><path style="opacity:1" fill="#fcfcfb" d="M 909.5,637.5 C 894.236,652.611 878.402,653.278 862,639.5C 850.628,622.202 852.795,606.869 868.5,593.5C 888.32,585.271 903.153,590.605 913,609.5C 915.682,619.328 914.515,628.662 909.5,637.5 Z"/></g>
<g><path style="opacity:1" fill="#fbfbfb" d="M 1023.5,600.5 C 1025.5,599.167 1027.17,597.5 1028.5,595.5C 1043.35,586.501 1057.18,587.835 1070,599.5C 1079.57,612.244 1079.91,625.244 1071,638.5C 1058,650.972 1043.83,652.472 1028.5,643C 1015.83,630.149 1014.16,615.983 1023.5,600.5 Z"/></g>
<g><path style="opacity:1" fill="#343434" d="M 610.5,618.5 C 610.5,619.167 610.5,619.833 610.5,620.5C 610.859,627.093 608.859,632.76 604.5,637.5C 609.515,628.662 610.682,619.328 608,609.5C 598.153,590.605 583.32,585.271 563.5,593.5C 567.814,589.563 572.981,587.896 579,588.5C 598.147,589.482 608.647,599.482 610.5,618.5 Z"/></g>
<g><path style="opacity:1" fill="#323232" d="M 714.5,591.5 C 713.341,593.25 711.674,594.25 709.5,594.5C 710.659,592.75 712.326,591.75 714.5,591.5 Z"/></g>
<g><path style="opacity:1" fill="#3e3e3e" d="M 1215.5,606.5 C 1205.22,590.685 1191.22,586.185 1173.5,593C 1168.64,596.697 1164.3,600.864 1160.5,605.5C 1168.97,590.501 1181.63,585.334 1198.5,590C 1206.71,593.048 1212.38,598.548 1215.5,606.5 Z"/></g>
<g><path style="opacity:1" fill="#2d2d2d" d="M 1028.5,595.5 C 1027.17,597.5 1025.5,599.167 1023.5,600.5C 1024.17,597.833 1025.83,596.167 1028.5,595.5 Z"/></g>
<g><path style="opacity:1" fill="#313131" d="M 907.5,596.5 C 907.5,596.833 907.5,597.167 907.5,597.5C 912.677,603.524 915.343,610.524 915.5,618.5C 915.5,619.167 915.5,619.833 915.5,620.5C 915.859,627.093 913.859,632.76 909.5,637.5C 914.515,628.662 915.682,619.328 913,609.5C 903.153,590.605 888.32,585.271 868.5,593.5C 870.649,591.254 873.316,589.754 876.5,589C 881.5,588.333 886.5,588.333 891.5,589C 897.279,590.725 902.612,593.225 907.5,596.5 Z"/></g>
<g><path style="opacity:1" fill="#141c31" d="M 1106.5,600.5 C 1108.86,600.337 1111.19,600.503 1113.5,601C 1111.53,601.495 1109.53,601.662 1107.5,601.5C 1107.5,602.5 1107.5,603.5 1107.5,604.5C 1114.17,604.833 1114.17,605.167 1107.5,605.5C 1107.5,606.833 1107.5,608.167 1107.5,609.5C 1109.53,609.338 1111.53,609.505 1113.5,610C 1111.19,610.497 1108.86,610.663 1106.5,610.5C 1106.5,607.167 1106.5,603.833 1106.5,600.5 Z"/></g>
<g><path style="opacity:1" fill="#393939" d="M 1166.5,609.5 C 1169.42,602.061 1174.76,597.894 1182.5,597C 1175.83,599.507 1170.5,603.673 1166.5,609.5 Z"/></g>
<g><path style="opacity:1" fill="#8b6a6c" d="M 798.5,601.5 C 799.117,601.611 799.617,601.944 800,602.5C 800.667,604.5 800.667,606.5 800,608.5C 798.933,610.283 797.433,610.783 795.5,610C 796.448,609.517 797.448,609.351 798.5,609.5C 798.5,608.5 798.5,607.5 798.5,606.5C 793.426,606.639 792.426,604.806 795.5,601C 796.749,600.26 797.749,600.427 798.5,601.5 Z"/></g>
<g><path style="opacity:1" fill="#f5f9fa" d="M 798.5,601.5 C 798.5,602.833 798.5,604.167 798.5,605.5C 797.325,605.719 796.325,605.386 795.5,604.5C 795.879,602.787 796.879,601.787 798.5,601.5 Z"/></g>
<g><path style="opacity:1" fill="#8b6a6c" d="M 958.5,601.5 C 959.117,601.611 959.617,601.944 960,602.5C 960.667,604.5 960.667,606.5 960,608.5C 958.933,610.283 957.433,610.783 955.5,610C 956.448,609.517 957.448,609.351 958.5,609.5C 958.5,608.5 958.5,607.5 958.5,606.5C 953.426,606.639 952.426,604.806 955.5,601C 956.749,600.26 957.749,600.427 958.5,601.5 Z"/></g>
<g><path style="opacity:1" fill="#f5f9fa" d="M 958.5,601.5 C 958.5,602.833 958.5,604.167 958.5,605.5C 957.325,605.719 956.325,605.386 955.5,604.5C 955.879,602.787 956.879,601.787 958.5,601.5 Z"/></g>
<g><path style="opacity:1" fill="#313131" d="M 709.5,594.5 C 696.951,605.674 694.118,619.008 701,634.5C 710.587,648.275 723.42,652.609 739.5,647.5C 724.93,653.709 712.43,650.709 702,638.5C 698.67,632.841 696.17,626.841 694.5,620.5C 691.833,621.833 689.167,623.167 686.5,624.5C 685.913,623.767 685.913,622.767 686.5,621.5C 687.833,620.167 687.833,618.833 686.5,617.5C 685.913,616.233 685.913,615.233 686.5,614.5C 689.167,615.833 691.833,617.167 694.5,618.5C 696.105,609.12 700.439,601.286 707.5,595C 708.094,594.536 708.761,594.369 709.5,594.5 Z"/></g>
<g><path style="opacity:1" fill="#414141" d="M 1160.5,605.5 C 1159.07,609.816 1158.07,614.316 1157.5,619C 1158.18,623.918 1159.18,628.752 1160.5,633.5C 1157.38,629.45 1156.04,624.783 1156.5,619.5C 1156.04,614.217 1157.38,609.55 1160.5,605.5 Z"/></g>
<g><path style="opacity:1" fill="#2e71a5" d="M 580.5,614.5 C 581.643,617.976 581.81,621.642 581,625.5C 580.999,622.313 580.166,619.48 578.5,617C 579.381,616.292 580.047,615.458 580.5,614.5 Z"/></g>
<g><path style="opacity:1" fill="#0c0216" d="M 737.5,616.5 C 736.048,615.698 734.382,615.198 732.5,615C 734.579,614.192 736.579,614.359 738.5,615.5C 738.376,616.107 738.043,616.44 737.5,616.5 Z"/></g>
<g><path style="opacity:1" fill="#080808" d="M 844.5,620.5 C 844.5,619.833 844.5,619.167 844.5,618.5C 843.588,617.262 843.421,615.928 844,614.5C 846.916,616.041 849.749,617.707 852.5,619.5C 849.749,621.293 846.916,622.959 844,624.5C 843.805,623.181 843.972,621.847 844.5,620.5 Z"/></g>
<g><path style="opacity:1" fill="#c5b7bc" d="M 891.5,623.5 C 890.167,623.5 889.5,624.167 889.5,625.5C 888.833,625.5 888.167,625.5 887.5,625.5C 885.833,624.833 884.167,624.167 882.5,623.5C 883.145,622.188 884.145,621.188 885.5,620.5C 886.298,618.922 886.798,617.256 887,615.5C 887.414,615.957 887.914,616.291 888.5,616.5C 894.059,613.1 896.392,614.433 895.5,620.5C 894.148,621.524 892.815,622.524 891.5,623.5 Z"/></g>
<g><path style="opacity:1" fill="#4c104b" d="M 727.5,614.5 C 728.643,617.976 728.81,621.642 728,625.5C 727.999,622.313 727.166,619.48 725.5,617C 726.381,616.292 727.047,615.458 727.5,614.5 Z"/></g>
<g><path style="opacity:1" fill="#101010" d="M 1007.5,620.5 C 1007.5,619.833 1007.5,619.167 1007.5,618.5C 1006.97,617.279 1006.31,616.113 1005.5,615C 1009.11,615.631 1012.44,617.131 1015.5,619.5C 1012.75,621.293 1009.92,622.959 1007,624.5C 1006.81,623.181 1006.97,621.847 1007.5,620.5 Z"/></g>
<g><path style="opacity:1" fill="#090909" d="M 1147.5,621.5 C 1148.83,620.167 1148.83,618.833 1147.5,617.5C 1146.44,616.425 1146.44,615.425 1147.5,614.5C 1150.17,616.167 1152.83,617.833 1155.5,619.5C 1152.75,621.293 1149.92,622.959 1147,624.5C 1146.53,623.423 1146.7,622.423 1147.5,621.5 Z"/></g>
<g><path style="opacity:1" fill="#0a4e97" d="M 573.5,628.5 C 573.747,625.061 573.414,621.728 572.5,618.5C 573.117,618.389 573.617,618.056 574,617.5C 574.81,621.358 574.643,625.024 573.5,628.5 Z"/></g>
<g><path style="opacity:1" fill="#0a4e97" d="M 878.5,628.5 C 878.747,625.061 878.414,621.728 877.5,618.5C 878.117,618.389 878.617,618.056 879,617.5C 879.81,621.358 879.643,625.024 878.5,628.5 Z"/></g>
<g><path style="opacity:1" fill="#bfa89e" d="M 572.5,618.5 C 573.414,621.728 573.747,625.061 573.5,628.5C 572.596,627.791 572.263,626.791 572.5,625.5C 567.841,625.189 566.507,622.856 568.5,618.5C 569.995,617.295 571.328,617.295 572.5,618.5 Z"/></g>
<g><path style="opacity:1" fill="#606060" d="M 686.5,617.5 C 687.833,618.833 687.833,620.167 686.5,621.5C 661.339,620.502 636.005,620.169 610.5,620.5C 610.5,619.833 610.5,619.167 610.5,618.5C 636.005,618.831 661.339,618.498 686.5,617.5 Z"/></g>
<g><path style="opacity:1" fill="#bfa89e" d="M 877.5,618.5 C 878.414,621.728 878.747,625.061 878.5,628.5C 877.596,627.791 877.263,626.791 877.5,625.5C 872.841,625.189 871.507,622.856 873.5,618.5C 874.995,617.295 876.328,617.295 877.5,618.5 Z"/></g>
<g><path style="opacity:1" fill="#5f5f5f" d="M 915.5,618.5 C 946.167,618.5 976.833,618.5 1007.5,618.5C 1007.5,619.167 1007.5,619.833 1007.5,620.5C 976.833,620.5 946.167,620.5 915.5,620.5C 915.5,619.833 915.5,619.167 915.5,618.5 Z"/></g>
<g><path style="opacity:1" fill="#5e5e5e" d="M 1147.5,617.5 C 1148.83,618.833 1148.83,620.167 1147.5,621.5C 1124.67,620.502 1101.67,620.169 1078.5,620.5C 1078.5,619.833 1078.5,619.167 1078.5,618.5C 1101.67,618.831 1124.67,618.498 1147.5,617.5 Z"/></g>
<g><path style="opacity:1" fill="#444444" d="M 1215.5,606.5 C 1220.55,614.905 1220.72,623.572 1216,632.5C 1216.48,628.061 1216.98,623.561 1217.5,619C 1217.23,614.758 1216.56,610.591 1215.5,606.5 Z"/></g>
<g><path style="opacity:1" fill="#a89aa3" d="M 584.5,618.5 C 585.991,618.901 587.658,619.068 589.5,619C 591.515,620.555 591.848,622.389 590.5,624.5C 589.232,625.428 587.899,625.595 586.5,625C 584.984,623.103 584.317,620.936 584.5,618.5 Z"/></g>
<g><path style="opacity:1" fill="#61230c" d="M 720.5,617.5 C 721.855,622.219 721.855,624.886 720.5,625.5C 716.5,625.167 716.5,624.833 720.5,624.5C 720.15,621.959 720.15,619.626 720.5,617.5 Z"/></g>
<g><path style="opacity:1" fill="#686a98" d="M 737.5,616.5 C 736.034,619.247 735.201,622.247 735,625.5C 734.333,623.167 734.333,620.833 735,618.5C 735.708,617.619 736.542,616.953 737.5,616.5 Z"/></g>
<g><path style="opacity:1" fill="#190600" d="M 882.5,623.5 C 884.167,624.167 885.833,624.833 887.5,625.5C 885.396,625.799 883.396,625.466 881.5,624.5C 881.624,623.893 881.957,623.56 882.5,623.5 Z"/></g>
<g><path style="opacity:1" fill="#291d25" d="M 891.5,623.5 C 892.952,624.302 894.618,624.802 896.5,625C 894.19,625.497 891.857,625.663 889.5,625.5C 889.5,624.167 890.167,623.5 891.5,623.5 Z"/></g>
<g><path style="opacity:1" fill="#3e3e3e" d="M 1166.5,609.5 C 1162.18,627.889 1169.18,638.889 1187.5,642.5C 1205.55,639.738 1212.72,629.405 1209,611.5C 1203.97,600.891 1195.47,595.724 1183.5,596C 1205.99,596.168 1214.82,607.335 1210,629.5C 1202.81,641.841 1192.31,646.007 1178.5,642C 1164.95,634.437 1160.95,623.603 1166.5,609.5 Z"/></g>
<g><path style="opacity:1" fill="#210921" d="M 1185.5,623.5 C 1186.95,624.302 1188.62,624.802 1190.5,625C 1188.19,625.497 1185.86,625.663 1183.5,625.5C 1183.83,624.5 1184.5,623.833 1185.5,623.5 Z"/></g>
<g><path style="opacity:1" fill="#61230c" d="M 1181.5,617.5 C 1181.5,621.167 1181.5,624.833 1181.5,628.5C 1180.6,627.791 1180.26,626.791 1180.5,625.5C 1176.5,625.167 1176.5,624.833 1180.5,624.5C 1180.74,622.533 1180.41,620.699 1179.5,619C 1180.04,618.283 1180.71,617.783 1181.5,617.5 Z"/></g>
<g><path style="opacity:1" fill="#290a2f" d="M 1196.5,614.5 C 1197.21,616.893 1197.88,619.393 1198.5,622C 1197.81,623.067 1197.31,624.234 1197,625.5C 1196.52,624.552 1196.35,623.552 1196.5,622.5C 1195.02,622.762 1193.69,622.429 1192.5,621.5C 1193.56,621.094 1194.89,621.094 1196.5,621.5C 1196.5,619.167 1196.5,616.833 1196.5,614.5 Z"/></g>
<g><path style="opacity:1" fill="#c6bfc4" d="M 1185.5,623.5 C 1184.5,623.833 1183.83,624.5 1183.5,625.5C 1182.83,626.5 1182.17,627.5 1181.5,628.5C 1181.5,624.833 1181.5,621.167 1181.5,617.5C 1183.77,615.017 1186.44,614.35 1189.5,615.5C 1190.86,619.447 1189.53,622.114 1185.5,623.5 Z"/></g>
<g><path style="opacity:1" fill="#393939" d="M 868.5,593.5 C 852.795,606.869 850.628,622.202 862,639.5C 878.402,653.278 894.236,652.611 909.5,637.5C 903.519,646.409 895.019,650.742 884,650.5C 870.255,649.757 860.589,643.09 855,630.5C 851.276,618.137 853.609,607.137 862,597.5C 864.069,595.915 866.236,594.581 868.5,593.5 Z"/></g>
<g><path style="opacity:1" fill="#343434" d="M 747.5,642.5 C 745.47,645.182 742.803,646.849 739.5,647.5C 741.822,645.336 744.489,643.669 747.5,642.5 Z"/></g>
<g><path style="opacity:1" fill="#2d2d2d" d="M 563.5,593.5 C 547.485,606.809 545.318,622.143 557,639.5C 573.402,653.278 589.236,652.611 604.5,637.5C 600.361,644.108 594.361,648.275 586.5,650C 569.419,652.544 557.252,646.044 550,630.5C 550.751,622.181 547.584,616.015 540.5,612C 541.793,611.51 543.127,611.343 544.5,611.5C 545.492,611.672 546.158,611.338 546.5,610.5C 550.485,606.669 553.985,602.336 557,597.5C 559.069,595.915 561.236,594.581 563.5,593.5 Z"/></g>
<g><path style="opacity:1" fill="#3d3d3d" d="M 1078.5,618.5 C 1078.5,619.167 1078.5,619.833 1078.5,620.5C 1077.68,636.158 1069.68,645.992 1054.5,650C 1027.52,651.354 1015.02,638.521 1017,611.5C 1018.17,607.142 1020.34,603.475 1023.5,600.5C 1014.16,615.983 1015.83,630.149 1028.5,643C 1043.83,652.472 1058,650.972 1071,638.5C 1079.91,625.244 1079.57,612.244 1070,599.5C 1057.18,587.835 1043.35,586.501 1028.5,595.5C 1031.48,592.339 1035.14,590.172 1039.5,589C 1058.54,586.097 1071.37,593.597 1078,611.5C 1078.5,613.81 1078.66,616.143 1078.5,618.5 Z"/></g>
<g><path style="opacity:1" fill="#61230c" d="M 1041.5,617.5 C 1041.5,621.167 1041.5,624.833 1041.5,628.5C 1040.6,627.791 1040.26,626.791 1040.5,625.5C 1036.5,625.167 1036.5,624.833 1040.5,624.5C 1040.74,622.533 1040.41,620.699 1039.5,619C 1040.04,618.283 1040.71,617.783 1041.5,617.5 Z"/></g>
<g><path style="opacity:1" fill="#d5cece" d="M 1050.5,625.5 C 1048.78,624.776 1046.95,624.109 1045,623.5C 1044.28,624.044 1043.78,624.711 1043.5,625.5C 1042.83,626.5 1042.17,627.5 1041.5,628.5C 1041.5,624.833 1041.5,621.167 1041.5,617.5C 1044.69,614.052 1048.19,613.718 1052,616.5C 1053.61,614.511 1055.44,614.178 1057.5,615.5C 1057.98,617.851 1058.31,620.185 1058.5,622.5C 1057.62,624.773 1055.96,625.773 1053.5,625.5C 1053.65,624.448 1053.48,623.448 1053,622.5C 1052.62,623.942 1051.79,624.942 1050.5,625.5 Z"/></g>
<g><path style="opacity:1" fill="#210921" d="M 1050.5,625.5 C 1048.17,625.5 1045.83,625.5 1043.5,625.5C 1043.78,624.711 1044.28,624.044 1045,623.5C 1046.95,624.109 1048.78,624.776 1050.5,625.5 Z"/></g>
<g><path style="opacity:1" fill="#363636" d="M 1160.5,633.5 C 1172.3,650.032 1187.3,653.532 1205.5,644C 1208.7,640.612 1211.7,637.778 1214.5,635.5C 1206.14,648.007 1194.47,652.84 1179.5,650C 1170.61,647.253 1164.28,641.753 1160.5,633.5 Z"/></g>
</svg>
